<?xml version="1.0" encoding="utf-8"?>
<!-- Generator: Adobe Illustrator 23.0.2, SVG Export Plug-In . SVG Version: 6.00 Build 0)  -->
<svg version="1.1" id="Capa_1" xmlns="http://www.w3.org/2000/svg" xmlns:xlink="http://www.w3.org/1999/xlink" x="0px" y="0px"
	 viewBox="0 0 295.58 306.01" style="enable-background:new 0 0 295.58 306.01;" xml:space="preserve">
<style type="text/css">
	.st0{fill:none;}
	.st1{fill:#2E2E2E;}
	.st2{fill:#CE1126;}
	.st3{fill:#003893;}
	.st4{fill:#FCD116;}
	.st5{fill:#FFFFFF;}
	.st6{fill:none;stroke:#F8F8F8;stroke-width:3;stroke-miterlimit:10;}
	.st7{fill:none;stroke:#FFFFFF;stroke-width:0.25;stroke-miterlimit:10;}
	.st8{fill:#2E2E2E;stroke:#E6E6E6;stroke-miterlimit:10;}
	.st9{fill:#F8F8F8;}
	.st10{fill:#E6E6E6;}
	.st11{fill:none;stroke:#FFFFFF;stroke-miterlimit:10;}
	.st12{fill:#D0156C;}
	.st13{fill:#761928;}
	.st14{fill:url(#SVGID_1_);}
	.st15{fill:#DEA83E;}
	.st16{fill:url(#SVGID_2_);}
	.st17{fill:url(#SVGID_3_);}
	.st18{fill:url(#SVGID_4_);}
	.st19{fill:url(#SVGID_5_);}
	.st20{clip-path:url(#SVGID_7_);}
	.st21{fill:#272425;}
	.st22{fill:#D26F2C;}
	.st23{fill:none;stroke:#272425;stroke-width:0.3584;stroke-miterlimit:10;}
	.st24{fill:#1A171B;}
	.st25{fill:none;stroke:#2E2E2E;stroke-width:0.5;stroke-miterlimit:10;}
	.st26{fill:#998B82;}
	.st27{fill:#2B0F03;}
	.st28{fill:#424242;}
	.st29{fill:#57C178;}
	.st30{opacity:0.5;fill:#FFFFFF;}
	.st31{fill:#FFDCDC;}
	.st32{fill:#FF503A;}
	.st33{enable-background:new    ;}
	.st34{fill:#E5502E;}
	.st35{fill:#FFDF43;}
	.st36{fill:#CD6117;}
</style>
<g>
	<path class="st36" d="M187.81,306.01h-80.04C48.25,306.01,0,257.76,0,198.24v-90.47C0,48.25,48.25,0,107.77,0h80.04
		c59.52,0,107.77,48.25,107.77,107.77v90.47C295.58,257.76,247.33,306.01,187.81,306.01"/>
	<path class="st5" d="M54.91,93.18v119.66h28.9v-94.02c19.32,0.11,38.66-0.19,57.98,0.08c11.08-0.51,20.5,10,20.33,21.22
		c0.33,24.23,0.02,48.48,0.12,72.72h28.9c0-27.76,0-55.51,0.02-83.27c1.4-19.64-16.43-36.86-34.99-36.31
		C122.42,93.03,88.65,93.27,54.91,93.18"/>
	<rect x="211.77" y="93.18" class="st5" width="28.9" height="119.66"/>
	<rect x="108.57" y="140.19" class="st5" width="28.9" height="72.65"/>
</g>
</svg>
