<?xml version="1.0" encoding="utf-8"?>
<!-- Generator: Adobe Illustrator 23.0.2, SVG Export Plug-In . SVG Version: 6.00 Build 0)  -->
<svg version="1.1" id="Capa_1" xmlns="http://www.w3.org/2000/svg" xmlns:xlink="http://www.w3.org/1999/xlink" x="0px" y="0px"
	 viewBox="0 0 296.4 296.4" style="enable-background:new 0 0 296.4 296.4;" xml:space="preserve">
<style type="text/css">
	.st0{fill:none;}
	.st1{fill:#2E2E2E;}
	.st2{fill:#CE1126;}
	.st3{fill:#003893;}
	.st4{fill:#FCD116;}
	.st5{fill:#FFFFFF;}
	.st6{fill:none;stroke:#F8F8F8;stroke-width:3;stroke-miterlimit:10;}
	.st7{fill:none;stroke:#FFFFFF;stroke-width:0.25;stroke-miterlimit:10;}
	.st8{fill:#2E2E2E;stroke:#E6E6E6;stroke-miterlimit:10;}
	.st9{fill:#F8F8F8;}
	.st10{fill:#E6E6E6;}
	.st11{fill:none;stroke:#FFFFFF;stroke-miterlimit:10;}
	.st12{fill:#D0156C;}
	.st13{fill:#761928;}
	.st14{fill:url(#SVGID_1_);}
	.st15{fill:#DEA83E;}
	.st16{fill:url(#SVGID_2_);}
	.st17{fill:url(#SVGID_3_);}
	.st18{fill:url(#SVGID_4_);}
	.st19{fill:url(#SVGID_5_);}
	.st20{clip-path:url(#SVGID_7_);}
	.st21{fill:#272425;}
	.st22{fill:#D26F2C;}
	.st23{fill:none;stroke:#272425;stroke-width:0.3584;stroke-miterlimit:10;}
	.st24{fill:#1A171B;}
	.st25{fill:none;stroke:#2E2E2E;stroke-width:0.5;stroke-miterlimit:10;}
	.st26{fill:#998B82;}
	.st27{fill:#2B0F03;}
	.st28{fill:#424242;}
	.st29{fill:#57C178;}
	.st30{opacity:0.5;fill:#FFFFFF;}
	.st31{fill:#FFDCDC;}
	.st32{fill:#FF503A;}
	.st33{enable-background:new    ;}
	.st34{fill:#E5502E;}
	.st35{fill:#FFDF43;}
	.st36{fill:#CD6117;}
	.st37{fill:#FDE732;}
	.st38{fill:#262424;}
	.st39{fill:#CB2128;}
</style>
<g>
	
		<ellipse transform="matrix(0.9998 -0.0205 0.0205 0.9998 -3.0081 3.0704)" class="st37" cx="148.2" cy="148.2" rx="148.2" ry="148.2"/>
	<path class="st38" d="M64.54,152.48h16.91c-0.95,6.12-3.59,11.57-8.52,15.73c-4.93,4.17-11.6,6.25-20.01,6.25
		c-9.36,0-16.82-2.93-22.39-8.8c-5.57-5.87-8.35-13.15-8.35-21.84c0-9.01,2.75-16.61,8.24-22.82c5.5-6.2,12.83-9.31,22-9.31
		c8.88,0,16.06,2.92,21.54,8.77c5.48,5.85,7.9,13.81,7.9,23.88c0,0.83-0.02,1.98-0.05,3.44h-40.6c0.07,3.79,0.8,6.5,2.26,8.11
		c1.38,1.53,6.71,3.79,9.99,3.79C58.2,159.7,63.71,157.42,64.54,152.48z M46.25,107.95l9.33-12.17l17.57,0.07l-15.31,12.25
		L46.25,107.95z M62.9,135.95c-0.05-3.89-1.71-6.42-3.68-8.03c-1.92-1.56-4.19-1.82-7.28-1.82c-4.97,0-10.96,3.28-10.96,9.85H62.9z"
		/>
	<path class="st38" d="M139.49,173.39H118.2l-11.44-16.97l-12.42,16.97H74.27l21.77-32.08l-19.51-28.43h20.54
		c0,0,9.74,13.12,10.05,13.83c0.38-0.67,9.12-13.83,9.12-13.83h21.08L117.61,141L139.49,173.39z"/>
	<path class="st38" d="M164.58,112.85l-3.76,60.54h-17.34l-3.29-60.54H164.58z"/>
	<path class="st38" d="M207.66,113.04v13.33h-11.3v27.32c0,2.64,0.64,3.86,1.63,4.36c0.99,0.5,1.94,0.64,3,0.64
		c1.65,0,4.4-0.6,6.66-1.18v15.38c-4.05,0.79-8.03,0.91-11.94,0.91c-6.31,0-11.24-1.69-14.21-4.4c-2.97-2.71-4.16-6.42-4.16-12.36
		l0.05-6.12v-24.54h-8.77v-13.33h9.18l-0.1-17.03l18.65,0.05v16.98H207.66z"/>
	<path class="st38" d="M238.99,174.47c-9.32,0-16.72-3.11-22.21-9.34c-5.49-6.22-8.23-13.52-8.23-21.9c0-9.01,2.86-16.52,8.59-22.53
		c5.73-6.01,13.18-9.01,22.35-9.01c9.25,0,16.68,2.96,22.29,8.89c5.62,5.93,8.43,13.36,8.43,22.29c0,9.01-2.84,16.53-8.54,22.56
		C255.97,171.46,248.41,174.47,238.99,174.47z M239.67,160.12c11.81,0,12.21-13.52,12.21-17.67c0-5.65-0.95-15.95-12.12-15.95
		c-11.03,0-12.12,10.65-12.12,16.54C227.64,149.97,228.84,160.12,239.67,160.12z"/>
	<path class="st39" d="M163.53,187.16c0,6.2-5.03,11.23-11.23,11.23c-6.2,0-11.23-5.03-11.23-11.23c0-6.2,5.03-11.23,11.23-11.23
		C158.51,175.93,163.53,180.95,163.53,187.16z"/>
	<g>
		<path class="st38" d="M277.83,126.74c-4.2,0-7.61-3.42-7.61-7.61c0-4.2,3.42-7.61,7.61-7.61c4.2,0,7.61,3.42,7.61,7.61
			C285.45,123.32,282.03,126.74,277.83,126.74L277.83,126.74z M277.83,112.69c-3.55,0-6.43,2.89-6.43,6.43
			c0,3.55,2.89,6.43,6.43,6.43c3.55,0,6.43-2.89,6.43-6.43C284.26,115.58,281.38,112.69,277.83,112.69L277.83,112.69z"/>
	</g>
	<g>
		<path class="st38" d="M276.42,119.78v3.02h-1.8v-7.63h3.35c0.62,0,1.11,0.07,1.49,0.22c0.37,0.14,0.68,0.41,0.93,0.79
			c0.25,0.38,0.37,0.81,0.37,1.28c0,0.92-0.44,1.57-1.32,1.97l1.41,3.37h-1.97l-1.17-3.02H276.42z M276.42,116.53v1.94h1.09
			c0.36,0,0.62-0.03,0.78-0.08c0.16-0.05,0.31-0.16,0.43-0.34c0.13-0.17,0.19-0.37,0.19-0.6c0-0.21-0.06-0.4-0.19-0.57
			c-0.13-0.17-0.26-0.27-0.41-0.31c-0.15-0.04-0.43-0.06-0.84-0.06H276.42z"/>
	</g>
</g>
</svg>
