<?xml version="1.0" encoding="utf-8"?>
<!-- Generator: Adobe Illustrator 24.3.0, SVG Export Plug-In . SVG Version: 6.00 Build 0)  -->
<svg version="1.1" id="Capa_1" xmlns="http://www.w3.org/2000/svg" xmlns:xlink="http://www.w3.org/1999/xlink" x="0px" y="0px"
	 viewBox="0 0 272 274.8" style="enable-background:new 0 0 272 274.8;" xml:space="preserve">
<style type="text/css">
	.st0{fill:#FF503A;}
	.st1{enable-background:new    ;}
	.st2{fill:#E5502E;}
	.st3{fill:none;}
	.st4{fill:#FFDF43;}
</style>
<g id="Group_4" transform="translate(-200.643 -157.837)">
	<path id="Path_1" class="st0" d="M456.6,236c-8.2,0.7-16.2-2.5-21.7-8.6c-0.5-0.5-1.3-0.6-1.8-0.1l0,0c-7,6.3-15.9,10.2-25.3,11
		c-23.5,2-44.1-15-46.1-38.1c-0.5-5.9,0.3-11.8,2.2-17.4c0.2-0.7-0.1-1.4-0.7-1.6c-9.2-3.7-15.6-12.2-16.4-22.1
		c-0.1-0.7-0.7-1.2-1.4-1.2c-65.6,4.5-115.2,61.4-110.6,127.1c4.5,65.6,61.4,115.2,127.1,110.6c65.6-4.5,115.2-61.4,110.6-127.1
		c-0.8-11.4-3.2-22.6-7.2-33.4c-0.2-0.7-1-1-1.7-0.8l0,0C461.3,235.2,458.9,235.8,456.6,236"/>
	<g class="st1">
		<path class="st2" d="M288.6,216c0.2,1.8,0.4,4.1,0.7,6.7c0.3,2.6,0.5,4.3,0.6,5.1c0.8,8.9,0.9,16.9,0.2,24
			c-0.4,4.6-2.3,7.5-5.5,8.7c-1,0.2-1.7,0.3-2,0.3c-4.5,0.4-7.3-1.5-8.2-5.6c-1.7-7.1-2.7-13.5-3.2-19.3c-0.5-6.1-0.5-11.6,0-16.4
			l1.4-4.7c2-3.6,5.2-5.5,9.5-5.9c1-0.1,1.9-0.1,2.7,0c1.3,0.5,2.2,1.5,2.8,3L288.6,216z"/>
		<path class="st2" d="M333.6,216.8L333.6,216.8c0.9,5.1,1.5,10,1.9,14.6c1.2,14.2-0.4,22.4-5,24.6c-0.7,0.3-1.5,0.5-2.5,0.6
			c-1.1,0.1-2.6,0-4.4-0.3c-2.4-1.1-6.4-8-12.2-20.7c1.1,3.4,1.8,6.8,2.1,10.2c0.3,3.7,0,6.8-0.8,9.1c-0.4,1.1-1.2,2-2.4,2.9
			s-2.4,1.3-3.6,1.2c-3.8,0-6.5-2.1-8.2-6.2c-1.1-2.7-2-7-2.5-12.8c-1-11.4-1.2-19.1-0.6-23.1c0.5-3,1.9-5.5,4.3-7.6
			c1.4-1.2,3-1.9,4.8-2c1-0.1,2,0,3,0.2c2.7,1.2,5.6,5.1,8.8,11.8c1.3,2.7,2.5,5.9,3.8,9.7c-0.7-2.9-1.3-5.5-1.8-7.7
			c-0.9-3.9-1.4-6.8-1.6-8.6c-0.2-2.2,0.2-4.1,1.3-5.6c1.2-1.8,3-2.8,5.5-3c4.4-0.4,7.3,1.8,8.8,6.6
			C332.6,211.6,333,213.7,333.6,216.8z"/>
	</g>
	<g class="st1">
		<path class="st2" d="M322.1,323.7c0,6.7-2.1,12-6.3,15.9c-2.2,2-6.4,4.5-12.4,7.3c-2.7,0.7-5.5,1.2-8.5,1.5
			c-8.6,0.7-15-0.5-19.1-3.8c-1-1.1-2.3-10.3-3.8-27.7c-1.8-20.6-2.3-32-1.5-34.1c4-4,10.3-6.4,18.9-7.2c2.5-0.2,4.4-0.3,5.7-0.1
			c6.8,0.7,12.1,2.7,15.7,6.1c3.6,3.4,5.8,7.8,6.4,13.5c-0.2,3.3-1.3,6.2-3.3,8.4c-0.9,1-2.9,2.5-5.9,4.5c4,0.4,7.4,2.1,10,5.2
			C320.8,316.3,322.1,319.8,322.1,323.7z M296.1,294.1L296.1,294.1c-0.5-1.5-1.9-2.1-4.3-1.9c-0.8,0.1-1.3,0.2-1.4,0.3
			c-0.4,0.1-0.8,0.5-1.1,1.3c0.7,3.6,1.1,7.6,1.1,12.1l3.8-2.9c1.6-3.3,2.3-5.8,2.1-7.5C296.4,295.1,296.3,294.7,296.1,294.1z
			 M297,325.4L297,325.4c0.3-1.4,0.4-2.6,0.3-3.5c-0.2-2.8-1.3-4.1-3.2-4c-1,0.1-2,0.6-2.9,1.5c0.1,0.8,0.2,2.3,0.1,4.4
			c-0.1,2.6-0.2,4.2-0.1,4.7c0,0.4,0.2,1.3,0.4,2.8c1.8-0.4,3.2-1.2,4-2.5C296,328.2,296.5,327.1,297,325.4z"/>
	</g>
	<g class="st1">
		<path class="st2" d="M349.5,282.7c0.2,2.5,0.5,5.6,1,9.2c0.4,3.6,0.7,5.9,0.8,7c1.1,12.1,1.2,23,0.3,32.7
			c-0.6,6.3-3.1,10.2-7.5,11.8c-1.3,0.2-2.2,0.4-2.7,0.4c-6.2,0.5-9.9-2-11.2-7.6c-2.3-9.7-3.7-18.5-4.3-26.4
			c-0.7-8.3-0.6-15.8,0-22.3l1.9-6.4c2.8-4.9,7.1-7.5,13-8.1c1.3-0.1,2.6-0.1,3.6,0.1c1.8,0.6,3,2,3.8,4L349.5,282.7z"/>
	</g>
	<g class="st1">
		<path class="st2" d="M405,277.5L405,277.5c0.4,0.9,0.5,2.1,0.7,3.5c0.2,3.1-0.3,5.5-1.6,7.2c-0.5,0.7-2.9,1.6-7.2,2.8
			c-4.3,1.2-6.5,1.9-6.6,2.2c-0.1,0.7,1.2,7,3.8,19c0.5,2.4,0.9,4.9,1.1,7.3c0.5,5.6,0.1,10.2-1,14c-1.4,4.7-4,7.1-7.5,7.3
			c-5.8,0.3-9.9-1.1-12.5-4.4c-1.9-2.4-3.2-6.4-3.7-12c0,0.5-0.1-2.7-0.5-9.7l-0.6-11.8c-0.1-3.7,0.1-6.9,0.4-9.7
			c-0.4,0.2-0.9,0.3-1.6,0.3c-2.1,0.2-4.2,0-6.3-0.5c-2.9-0.7-4.9-1.9-6.1-3.5c-1.7-2.4-2.6-4.7-2.8-6.9c-0.3-3.7,1.5-6.7,5.3-9.1
			c5-3.1,11.1-4.9,18.5-5.6c3.9-0.3,7.9-0.3,12.2,0.1c2.1,0.6,5.2,1.4,9.5,2.6C401.9,272.2,404.1,274.5,405,277.5z"/>
	</g>
	<g class="st1">
		<path class="st2" d="M450,290.1c0.3,0.9,0.5,1.8,0.5,2.8c0.3,3.2-0.8,6.1-3.2,8.5c-2.2,2.3-4.7,3.4-7.5,3.3
			c-0.5-0.1-1.4-0.1-2.8,0.1c0.2,0.7,0.1,2.7-0.1,5.9c0.1,1.5,0.9,2.5,2.2,3.1c2.5-0.9,4.5-1.1,6.2-0.5c2.6,0.8,4.1,2.3,4.6,4.6
			c0.5,2.6,0,5.4-1.6,8.2c-1.6,2.9-3.9,5.4-7,7.5c-2.7,1.9-6.1,3-10,3.4c-3.4,0.3-6.6-0.1-9.4-1.1c-1.2-0.5-3.1-2-5.7-4.7
			c-2.9-3.9-4.9-12.6-6.1-26c-0.7-7.7-0.8-16.6-0.3-26.6c0.3-5.8,1.6-9.7,4-11.6l15.2-2.9c2.6-0.8,5.1-1.3,7.5-1.5
			c4.8-0.4,7.7,0.5,8.8,2.9c0.5,0.9,0.7,2,0.8,3.3c0.2,2.6-0.6,4.9-2.4,6.7c-1.8,1.8-4.5,2.9-8,3.2c-0.9,0.1-1.5,0.1-2,0.2
			c-0.4,0.9-0.5,2.4-0.4,4.4c0.1,2.6,0.1,4,0.1,4.4c0.3,0.8,0.9,1.3,2.1,1.5c1.7-1.6,3.8-2.5,6.5-2.7
			C445,286.2,447.7,287.4,450,290.1z"/>
	</g>
	<rect id="Rectangle_1" x="264.5" y="180.9" class="st3" width="201.1" height="184.2"/>
	<g class="st1">
		<path d="M282.8,211.8c0.2,1.8,0.4,4.1,0.7,6.7c0.3,2.6,0.5,4.3,0.6,5.1c0.8,8.9,0.9,16.9,0.2,24c-0.4,4.6-2.3,7.5-5.5,8.7
			c-1,0.2-1.7,0.3-2,0.3c-4.5,0.4-7.3-1.5-8.2-5.6c-1.7-7.1-2.7-13.6-3.2-19.4c-0.5-6.1-0.5-11.6,0-16.4l1.4-4.7
			c2-3.6,5.2-5.5,9.5-5.9c1-0.1,1.9-0.1,2.7,0c1.3,0.5,2.2,1.5,2.8,3L282.8,211.8z"/>
		<path d="M327.9,212.7L327.9,212.7c0.9,5.1,1.5,10,1.9,14.6c1.2,14.2-0.4,22.4-5,24.6c-0.7,0.3-1.5,0.5-2.5,0.6
			c-1.1,0.1-2.6,0-4.4-0.3c-2.4-1.1-6.4-8-12.2-20.7c1.1,3.4,1.8,6.8,2.1,10.2c0.3,3.7,0,6.8-0.8,9.1c-0.4,1.1-1.2,2-2.4,2.9
			s-2.4,1.3-3.6,1.2c-3.8,0-6.5-2.1-8.2-6.2c-1.1-2.7-2-7-2.5-12.8c-1-11.4-1.2-19.1-0.6-23.1c0.5-3,1.9-5.5,4.3-7.6
			c1.4-1.2,3-1.9,4.8-2c1-0.1,2,0,3,0.2c2.7,1.2,5.6,5.1,8.8,11.8c1.3,2.7,2.5,5.9,3.8,9.7c-0.7-2.9-1.3-5.5-1.8-7.7
			c-0.9-3.9-1.4-6.8-1.6-8.6c-0.2-2.2,0.2-4.1,1.3-5.6c1.2-1.8,3-2.8,5.5-3c4.4-0.4,7.3,1.8,8.8,6.6
			C326.9,207.4,327.3,209.5,327.9,212.7z"/>
	</g>
	<g id="Group_3" transform="translate(200.643 252.452)">
		<g id="Group_2">
			<g id="Group_1">
				<path id="Path_2" d="M4.6,0l1.6,1.9c-1.1,0.8-1.8,2-2.1,3.4C4,6.3,4.3,7.1,5,7.2l0,0C5.7,7.3,6.1,6.9,7,5c1-2.3,2-3.8,4.4-3.4
					l0,0C13.5,2,14.7,4,14.3,6.4c-0.2,1.6-1,3.1-2.3,4.2L10.2,9c0.9-0.8,1.5-1.8,1.7-2.9c0.2-1-0.2-1.6-0.8-1.7l0,0
					c-0.8-0.1-1.1,0.3-2,2.3C8.1,9,7,10.3,4.8,9.9l0,0c-2.4-0.4-3.4-2.4-3-5.1C2.1,2.9,3.1,1.2,4.6,0z"/>
				<path id="Path_3" d="M5.7,16.4l7,0.4l-0.1,2.7l-6.9-0.4c-2-0.1-3.1,0.8-3.2,2.5s0.9,2.7,2.8,2.8l7,0.4l-0.1,2.7L5.3,27
					c-3.7-0.2-5.4-2.4-5.3-5.6S2.1,16.2,5.7,16.4z"/>
				<path id="Path_4" d="M12.2,33.4l0.4,5.7c0.2,1.2-0.2,2.3-0.9,3.3c-0.5,0.6-1.2,0.9-2,1l0,0C8.6,43.5,7.5,42.9,7,42
					c-0.2,1.4-1.4,2.4-2.9,2.5l0,0c-2.2,0.1-3.5-1.6-3.7-4.4L0,34.2L12.2,33.4z M5.4,39.6l-0.2-3.1l-2.7,0.2l0.2,3.2
					c0.1,1.2,0.5,1.9,1.5,1.8l0,0C5.1,41.7,5.5,41,5.4,39.6L5.4,39.6z M9.1,40.7c0.8-0.1,1.2-0.7,1.1-1.8L10,36.2l-2.6,0.2l0.2,2.5
					C7.7,40,8.2,40.8,9.1,40.7L9.1,40.7z"/>
				<path id="Path_5" d="M3.2,50.3l2.2,1.2c-0.7,1.1-1,2.5-0.8,3.9C4.7,56.5,5.3,57.1,6,57l0,0c0.7-0.1,0.9-0.6,1.1-2.7
					c0.2-2.5,0.6-4.2,3-4.6l0,0c2.2-0.4,3.9,1.1,4.4,3.6c0.3,1.6,0,3.3-0.7,4.8l-2.2-1c0.5-1,0.8-2.2,0.6-3.3
					c-0.2-1-0.7-1.5-1.3-1.4l0,0c-0.8,0.1-1,0.7-1.1,2.9c-0.2,2.6-0.8,4.1-2.9,4.5l0,0c-2.4,0.4-4.1-1.2-4.5-3.8
					C1.8,53.9,2.2,52,3.2,50.3z"/>
				<path id="Path_6" d="M2.8,66.3c0.4,1.1,1.2,1.6,2.1,1.2l-0.3-1l2.7-0.7L8,68.5l-2.3,0.6c-2.2,0.6-3.4-0.3-4-2.3L2.8,66.3z"/>
				<path id="Path_7" d="M21.8,80.2l2.3,5.2c0.5,1,0.6,2.3,0.3,3.4c-0.3,0.7-0.9,1.3-1.6,1.6l0,0c-1,0.5-2.2,0.3-3.1-0.4
					c0.2,1.4-0.5,2.8-1.8,3.3l0,0c-2.1,0.9-3.8-0.3-4.9-2.9L10.6,85L21.8,80.2z M17.5,88.3l-1.2-2.9l-2.5,1.1l1.3,2.9
					c0.5,1.1,1.1,1.6,2,1.2l0,0C17.9,90.3,18.1,89.6,17.5,88.3z M21.3,88.1c0.7-0.3,0.9-1.1,0.4-2.1l-1.1-2.4l-2.4,1l1,2.3
					C19.8,87.9,20.5,88.4,21.3,88.1L21.3,88.1z"/>
				<path id="Path_8" d="M28.7,94.8l1.3,2.4l-10.7,5.9l-1.3-2.4L28.7,94.8z"/>
				<path id="Path_9" d="M32.8,106.5l-2.1-3.1l2.1-1.4l5.6,8.4l-2.1,1.4l-2.1-3.1l-8.1,5.4l-1.5-2.2L32.8,106.5z"/>
				<path id="Path_10" d="M41.7,114.8l5.9,7.1l-1.8,1.5l-4.2-5l-1.9,1.6l3.7,4.4l-1.8,1.5l-3.7-4.4l-2,1.7l4.3,5.1l-1.8,1.5l-6-7.2
					L41.7,114.8z"/>
				<path id="Path_11" d="M43.8,133.1l2.5-0.3c0.1,1.4,0.6,2.6,1.6,3.6c0.8,0.8,1.6,0.9,2.1,0.4l0,0c0.5-0.5,0.4-1-0.7-2.8
					c-1.3-2.2-2-3.8-0.3-5.5l0,0c1.5-1.6,3.8-1.4,5.7,0.3c1.2,1.1,2,2.6,2.2,4.3l-2.4,0.5c-0.2-1.2-0.7-2.2-1.5-3.1
					c-0.7-0.7-1.5-0.8-1.9-0.3l0,0c-0.6,0.6-0.4,1.1,0.8,3c1.3,2.2,1.7,3.8,0.2,5.3l0,0c-1.7,1.8-4,1.4-5.9-0.4
					C44.8,136.8,43.9,135,43.8,133.1z"/>
				<path id="Path_12" d="M68.7,154.4c-1.3,0.2-2.6-0.2-3.7-0.9c-1.9-1.3-2.6-3.4-1.4-5.2l0,0c0.8-1.3,2.4-1.8,3.9-1.4
					c-0.1-0.9,0.2-1.8,0.7-2.5l0,0c0.9-1.4,2.9-1.9,4.9-0.6c1.5,0.8,2.1,2.8,1.2,4.3c0,0.1-0.1,0.1-0.1,0.2l0,0
					c-0.9,1.4-2.3,1.6-3.9,1.2l0.4,2.3c0.7-0.3,1.4-0.7,2.2-1.1l1,2c-0.9,0.5-1.8,0.9-2.8,1.2l0.5,2.5h-2.4L68.7,154.4z M68.4,152.3
					l-0.6-3.3c-0.7-0.1-1.4,0.1-1.8,0.7l0,0c-0.4,0.7-0.2,1.7,0.5,2.1c0,0,0.1,0,0.1,0.1C67.1,152.2,67.7,152.4,68.4,152.3
					L68.4,152.3z M72.1,147L72.1,147c0.4-0.5,0.3-1.2-0.2-1.5l-0.1-0.1c-0.5-0.4-1.2-0.3-1.6,0.3c0,0,0,0.1-0.1,0.1l0,0
					c-0.3,0.5-0.4,1.1-0.3,1.7C70.9,147.7,71.7,147.7,72.1,147L72.1,147z"/>
				<path id="Path_13" d="M89.1,153.7l2.7,1.1l-0.9,8.6l5.7-6.6l2.1,0.9l-0.7,8.7l5.5-6.7l2.6,1.1l-8.6,9.8l-2.2-0.9l0.5-8.5
					l-5.6,6.3l-2.2-0.9L89.1,153.7z"/>
				<path id="Path_14" d="M111.5,162.3l2.6,0.7l-3.4,11.8l-2.6-0.7L111.5,162.3z"/>
				<path id="Path_15" d="M120.3,164.7l2.4,0.5l4.3,8.5l1.4-7.4l2.6,0.5l-2.2,12l-2.3-0.4l-4.4-8.7l-1.4,7.7l-2.6-0.5L120.3,164.7z"
					/>
				<path id="Path_16" d="M136.3,173.5L136.3,173.5c0.2-3.5,3.1-6.2,6.6-6c0.1,0,0.1,0,0.2,0c1.8,0,3.5,0.7,4.7,2l-1.8,1.9
					c-0.8-0.9-1.9-1.4-3.1-1.4c-2,0-3.7,1.6-3.7,3.6l0,0c-0.2,2,1.2,3.8,3.2,4.1c0.1,0,0.2,0,0.3,0c0.9,0.1,1.8-0.1,2.6-0.6l0.1-1.7
					l-2.7-0.2l0.1-2.3l5.3,0.3l-0.3,5.3c-1.5,1.2-3.4,1.8-5.3,1.6c-3.4,0-6.1-2.8-6.1-6.2C136.3,173.8,136.3,173.7,136.3,173.5z"/>
				<path id="Path_17" d="M154,178.5l1.5-2c1,0.9,2.4,1.3,3.7,1.3c1.1-0.1,1.7-0.5,1.7-1.2l0,0c0-0.7-0.5-1-2.5-1.4
					c-2.5-0.5-4.1-1.1-4.3-3.5l0,0c-0.1-2.2,1.6-3.8,4.1-3.9c1.6-0.1,3.3,0.3,4.6,1.3l-1.3,2.1c-1-0.7-2.1-1-3.2-1
					c-1,0.1-1.5,0.6-1.5,1.2l0,0c0,0.8,0.6,1,2.7,1.5c2.5,0.5,4,1.3,4.1,3.5l0,0c0.1,2.4-1.6,3.9-4.3,4
					C157.4,180.2,155.5,179.7,154,178.5z"/>
			</g>
		</g>
	</g>
	<path id="Path_18" class="st2" d="M360.1,378.7c11.7-0.9,25.7-4.2,29.8-13c1.1-2.4,0.4-11.4-3.6-11.1l-57.3,4.3
		c-2.5,0.2-2.9,4.5-3,6.3c-0.5,11.4,13.6,13.4,22.2,13.7C352.1,379.2,356.1,379.1,360.1,378.7z"/>
	<path id="Path_19" d="M358.7,375.5c11.7-0.9,25.7-4.2,29.8-13c1.1-2.4,0.4-11.4-3.6-11.1l-57.3,4.3c-2.5,0.2-2.9,4.5-3,6.3
		c-0.5,11.4,13.6,13.4,22.2,13.7C350.7,375.9,354.7,375.8,358.7,375.5z"/>
	<path id="Path_20" class="st2" d="M266.6,183.2l5.9,15.1c1,2.7,4,4,6.7,3c0.8-0.3,1.6-0.9,2.2-1.6l10.2-12.6
		c1.8-2.2,1.4-5.5-0.8-7.3c-0.7-0.6-1.5-0.9-2.4-1.1l-16-2.5c-2.8-0.4-5.5,1.5-5.9,4.3C266.2,181.4,266.2,182.3,266.6,183.2z"/>
	<path id="Path_21" class="st4" d="M261.7,181.4c0.9,3.2,2,6.3,3.2,9.4c1,2.7,1.8,5.7,3.8,7.9c1.7,1.8,4.6,2.6,6.7,0.9
		c1.8-1.4,3.2-3.7,4.6-5.5c1.7-2.1,3.4-4.1,5.1-6.2c0.8-0.9,1.6-1.9,2.2-3c1.1-2,1.3-4.4-0.6-6c-1.5-1.3-3.7-1.7-5.6-2
		c-2.6-0.4-5.2-0.9-7.8-1.3c-1.8-0.3-3.6-0.5-5.4-0.7c-1.6-0.2-3.1-0.3-4.5,0.7c-1.6,1.3-2.3,3.4-1.8,5.4
		C261.7,181.2,261.7,181.3,261.7,181.4z"/>
	<g class="st1">
		<path class="st4" d="M317,318.6c0,6.7-2.1,12-6.3,15.9c-2.2,2-6.4,4.5-12.4,7.3c-2.7,0.7-5.5,1.2-8.5,1.5
			c-8.6,0.7-15-0.5-19.1-3.8c-1-1.1-2.3-10.3-3.8-27.7c-1.8-20.6-2.3-32-1.5-34.1c4-4,10.3-6.4,18.9-7.2c2.5-0.2,4.4-0.3,5.7-0.1
			c6.8,0.7,12.1,2.7,15.7,6.1s5.8,7.8,6.4,13.5c-0.2,3.3-1.3,6.2-3.3,8.4c-0.9,1-2.9,2.5-5.9,4.5c4,0.4,7.4,2.1,10,5.2
			C315.7,311.2,317,314.7,317,318.6z M291,289L291,289c-0.5-1.5-1.9-2.1-4.3-1.9c-0.8,0.1-1.3,0.2-1.4,0.3c-0.4,0.1-0.8,0.5-1.1,1.3
			c0.7,3.6,1.1,7.6,1.1,12.1l3.8-2.9c1.6-3.3,2.3-5.8,2.1-7.5C291.3,290,291.2,289.6,291,289z M291.9,320.2L291.9,320.2
			c0.3-1.4,0.4-2.6,0.3-3.5c-0.2-2.8-1.3-4.1-3.2-4c-1,0.1-2,0.6-2.9,1.5c0.1,0.8,0.2,2.3,0.1,4.4c-0.1,2.6-0.2,4.2-0.1,4.7
			c0,0.4,0.2,1.3,0.4,2.8c1.8-0.4,3.2-1.2,4-2.5C290.9,323.1,291.4,322,291.9,320.2z"/>
	</g>
	<g class="st1">
		<path class="st4" d="M344.4,277.6c0.2,2.5,0.5,5.6,1,9.2c0.4,3.6,0.7,5.9,0.8,7c1.1,12.1,1.2,23,0.3,32.7
			c-0.6,6.3-3.1,10.2-7.5,11.8c-1.3,0.2-2.2,0.4-2.7,0.4c-6.2,0.5-9.9-2-11.2-7.6c-2.3-9.7-3.7-18.5-4.3-26.4
			c-0.7-8.3-0.6-15.8,0-22.3l2-6.4c2.8-4.9,7.1-7.5,13-8.1c1.3-0.1,2.5-0.1,3.6,0.1c1.8,0.6,3,2,3.8,4L344.4,277.6z"/>
	</g>
	<g class="st1">
		<path class="st4" d="M399.9,272.4L399.9,272.4c0.4,0.9,0.5,2.1,0.7,3.5c0.2,3.1-0.3,5.5-1.6,7.2c-0.5,0.7-2.9,1.6-7.2,2.8
			c-4.3,1.2-6.5,1.9-6.6,2.2c-0.1,0.7,1.2,7,3.8,19c0.5,2.4,0.9,4.9,1.1,7.3c0.5,5.6,0.1,10.2-1,14c-1.4,4.7-4,7.1-7.5,7.3
			c-5.8,0.3-9.9-1.1-12.5-4.4c-1.9-2.4-3.2-6.4-3.7-12c0,0.5-0.1-2.7-0.5-9.7l-0.6-11.8c-0.1-3.7,0.1-6.9,0.4-9.7
			c-0.4,0.2-0.9,0.3-1.6,0.3c-2.1,0.2-4.2,0-6.3-0.5c-2.9-0.7-4.9-1.9-6.1-3.5c-1.7-2.4-2.6-4.7-2.8-6.9c-0.3-3.7,1.5-6.7,5.3-9.1
			c5-3.1,11.1-4.9,18.5-5.6c3.9-0.3,7.9-0.3,12.2,0.1c2.1,0.6,5.2,1.4,9.5,2.6C396.8,267.1,399,269.4,399.9,272.4z"/>
	</g>
	<g class="st1">
		<path class="st4" d="M444.9,285c0.3,0.9,0.5,1.8,0.5,2.8c0.3,3.2-0.8,6.1-3.2,8.5c-2.2,2.3-4.7,3.4-7.5,3.3
			c-0.5-0.1-1.4-0.1-2.8,0.1c0.2,0.7,0.1,2.7-0.1,5.9c0.1,1.5,0.9,2.5,2.2,3.1c2.5-0.9,4.5-1.1,6.2-0.5c2.6,0.8,4.1,2.3,4.6,4.6
			c0.5,2.6,0,5.4-1.6,8.2c-1.6,2.9-3.9,5.4-7,7.5c-2.7,1.9-6.1,3-10,3.4c-3.4,0.3-6.6-0.1-9.4-1.1c-1.2-0.5-3.1-2-5.7-4.7
			c-2.9-3.9-4.9-12.6-6.1-26c-0.7-7.7-0.8-16.6-0.3-26.6c0.3-5.8,1.6-9.7,4-11.6l15.2-2.9c2.6-0.8,5.1-1.3,7.5-1.5
			c4.8-0.4,7.7,0.5,8.8,2.9c0.5,0.9,0.7,2,0.8,3.3c0.2,2.6-0.6,4.9-2.4,6.7c-1.8,1.8-4.5,2.9-8,3.2c-0.9,0.1-1.5,0.1-2,0.2
			c-0.4,0.9-0.5,2.4-0.4,4.4c0.1,2.6,0.1,4,0.1,4.4c0.3,0.8,0.9,1.3,2.1,1.5c1.7-1.6,3.8-2.5,6.5-2.7
			C439.8,281.1,442.6,282.3,444.9,285z"/>
	</g>
</g>
</svg>
