<?xml version="1.0" encoding="utf-8"?>
<!-- Generator: Adobe Illustrator 23.0.2, SVG Export Plug-In . SVG Version: 6.00 Build 0)  -->
<svg version="1.1" id="Capa_1" xmlns="http://www.w3.org/2000/svg" xmlns:xlink="http://www.w3.org/1999/xlink" x="0px" y="0px"
	 viewBox="0 0 300.18 188.17" style="enable-background:new 0 0 300.18 188.17;" xml:space="preserve">
<style type="text/css">
	.st0{fill:none;}
	.st1{fill:#2E2E2E;}
	.st2{fill:#CE1126;}
	.st3{fill:#003893;}
	.st4{fill:#FCD116;}
	.st5{fill:#FFFFFF;}
	.st6{fill:none;stroke:#F8F8F8;stroke-width:3;stroke-miterlimit:10;}
	.st7{fill:none;stroke:#FFFFFF;stroke-width:0.25;stroke-miterlimit:10;}
	.st8{fill:#2E2E2E;stroke:#E6E6E6;stroke-miterlimit:10;}
	.st9{fill:#F8F8F8;}
	.st10{fill:#E6E6E6;}
	.st11{fill:none;stroke:#FFFFFF;stroke-miterlimit:10;}
	.st12{fill:#D0156C;}
	.st13{fill:#761928;}
	.st14{fill:url(#SVGID_1_);}
	.st15{fill:#DEA83E;}
	.st16{fill:url(#SVGID_2_);}
	.st17{fill:url(#SVGID_3_);}
	.st18{fill:url(#SVGID_4_);}
	.st19{fill:url(#SVGID_5_);}
	.st20{clip-path:url(#SVGID_7_);}
	.st21{fill:#272425;}
	.st22{fill:#D26F2C;}
	.st23{fill:none;stroke:#272425;stroke-width:0.3584;stroke-miterlimit:10;}
	.st24{fill:#1A171B;}
	.st25{fill:none;stroke:#2E2E2E;stroke-width:0.5;stroke-miterlimit:10;}
	.st26{fill:#998B82;}
	.st27{fill:#2B0F03;}
	.st28{fill:#424242;}
	.st29{fill:#57C178;}
	.st30{opacity:0.5;fill:#FFFFFF;}
	.st31{fill:#FFDCDC;}
	.st32{fill:#FF503A;}
	.st33{enable-background:new    ;}
	.st34{fill:#E5502E;}
	.st35{fill:#FFDF43;}
	.st36{fill:#CD6117;}
	.st37{fill:#FDE732;}
	.st38{fill:#262424;}
	.st39{fill:#CB2128;}
	.st40{fill:#193D6A;}
	.st41{fill:#00369C;}
</style>
<g>
	<path class="st5" d="M31.5,126.95l0.04-0.83c0.02-0.37,0.33-6.6,0.48-8.37l0.05-0.49c0.14-1.38,0.27-2.69-0.67-3.9
		c-0.79-1.01-3.96-2.03-7.9-2.55c-0.57-0.08-1.36-0.14-2.12-0.2c-3.53-0.28-7.51-0.6-8.24-2.56c-0.68-1.8-0.33-3.23,0.01-4.61
		l0.01-0.05c0.06-0.26,0.12-0.51,0.18-0.76l0.06-0.27c0.31-1.44,0.4-1.87,0.4-3.01c0-1.18,0.33-2.22,0.65-3.23
		c0.08-0.24,0.15-0.46,0.21-0.67c0.13-0.43,0.02-0.75-0.14-1.21c-0.15-0.43-0.32-0.92-0.25-1.52c0.05-0.38,0.2-0.87,0.37-1.39
		c0.39-1.26,0.62-2.14,0.56-2.72c-0.03-0.23-0.13-0.45-0.28-0.62c-0.3-0.32-0.82-0.68-2.64-1.13l-0.13-0.03
		c-0.14-0.04-0.29-0.07-0.45-0.1c-1.02-0.19-1.66-0.53-1.8-1.64c-0.16-1.3,1.01-4.85,1.48-5.98c0.57-1.37,3.18-6.97,4.78-9.92
		c0.78-1.43,1.7-2.89,2.51-4.18l0.04-0.07c0.85-1.35,1.65-2.63,2.17-3.67c0.43-0.86,0.87-1.84,1.29-2.78l0.03-0.06
		c0.63-1.4,1.26-2.82,1.9-3.95l0.17-0.3c1.04-1.86,2.47-4.4,4.33-6.38L29.36,47c1.71-1.83,3.48-3.73,5.38-5.21
		c1.28-1,3.1-2.17,4.39-2.98c0.51-0.32,0.67-0.98,0.37-1.5l-1.12-1.9l4.76-3.01l0.45,0.47c17.7,18.65,27.85,45.24,27.85,72.94
		c0,6.8-0.62,13.5-1.91,20.48l-0.12,0.65H31.5z"/>
	<g>
		<path class="st5" d="M75.38,126.95l0.15-0.92c1.1-6.56,1.66-13.36,1.66-20.21c0-29.04-9.96-56.11-28.03-76.21l-0.61-0.68
			l5.52-3.71l1.15,1.46c0.22,0.27,0.54,0.42,0.87,0.42c0.21,0,0.42-0.06,0.6-0.18c3.22-2.09,11.87-7.47,22.55-12.15
			c12.5-5.48,18.77-7.39,31.28-10.36c13.45-3.19,24.11-3.28,25.28-3.28l0.7,0l2.83,14.54l-9.72,7.01c-0.35,0.25-0.52,0.69-0.44,1.12
			c0.09,0.43,0.41,0.76,0.84,0.86l11.41,2.62l1.53,10.45l-10.19,3.05c-0.46,0.14-0.78,0.56-0.79,1.04c-0.01,0.48,0.3,0.91,0.75,1.07
			l11.34,3.84l0.71,9.82l-10.6,2.39c-0.46,0.1-0.81,0.5-0.86,0.97c-0.05,0.47,0.22,0.92,0.65,1.12l11.33,5.04l0.21,10.02
			l-10.48,1.16c-0.48,0.05-0.87,0.41-0.96,0.89c-0.09,0.47,0.13,0.95,0.56,1.18l10.85,5.85l-0.21,9.79l-10.14,0.71
			c-0.48,0.03-0.89,0.38-1,0.85c-0.11,0.47,0.1,0.96,0.52,1.21l10.25,5.94l-0.46,9.71H132.8c-0.45,0-0.86,0.27-1.03,0.69
			c-0.17,0.42-0.07,0.9,0.26,1.21l12.18,11.68H75.38z"/>
		<g>
			<g>
				<path class="st40" d="M292.48,136.8H281.9c-4.65,0-6.41,3.47-6.41,7v37.34c0,3.64,1.57,6.94,7.24,6.97h10.21
					c5.64,0,7.27-3.33,7.23-6.97V143.8C300.18,140.3,298.35,136.81,292.48,136.8z M289.48,178.2c0,1.06-1.07,1.37-1.66,1.37
					c-0.59,0-1.7-0.39-1.7-1.37v-31.77c0-0.73,1.1-1.45,1.7-1.45c0.6,0,1.66,0.71,1.66,1.45V178.2z"/>
				<path class="st40" d="M172.26,136.77l-6.58,51.34h10.66l0.88-9.61h4.71l0.87,9.61h10.67l-6.61-51.34H172.26z M177.99,169.51
					l1.45-16.39h0.21l1.45,16.39H177.99z"/>
				<rect x="228.16" y="136.79" class="st40" width="10.82" height="51.32"/>
				<path class="st40" d="M112.69,163.36c2.98,0,3.83-2.31,3.83-5.67v-13.69c0-4.48-2.28-7.18-7.98-7.18H91.73v51.3h10.64v-20.23
					c0,0,3.36-0.19,3.36,2.08v18.15h10.8v-17.99C116.52,167.55,116.81,163.36,112.69,163.36z M105.73,155.59
					c0.02,2.53-3.37,2.31-3.37,2.31v-12.91c0,0,3.37-0.19,3.37,2.03V155.59z"/>
				<path class="st40" d="M154.91,136.81h-9.47c-6.14,0-7.5,3.47-7.5,7.21v37.45c0,3.5,1.79,6.69,7.5,6.69h9.38
					c6.06,0,7.88-3.33,7.88-6.69v-13.75h-10.68v10.6c0,1.79-3.4,1.68-3.4,0v-32c0-1.82,3.4-1.87,3.4,0v8h10.69v-10.31
					C162.72,140.35,161.07,136.81,154.91,136.81z"/>
				<polygon class="st40" points="48.36,157.46 48.22,157.45 44.86,136.81 31.34,136.81 31.34,188.08 41.32,188.08 41.32,163.79 
					41.44,163.79 44.96,188.08 51.66,188.08 55.15,163.79 55.3,163.79 55.3,188.08 65.34,188.08 65.34,136.81 51.72,136.81 				"/>
				<polygon class="st40" points="70.62,188.11 87.25,188.11 87.25,179.91 81.34,179.91 81.34,163.93 87.25,163.93 87.25,155.8 
					81.37,155.8 81.37,144.99 87.25,144.99 87.25,136.82 70.62,136.82 				"/>
				<polygon class="st40" points="213.59,159.99 213.4,159.99 208.19,136.81 197.46,136.81 197.46,188.11 206.6,188.11 
					206.6,164.95 206.81,164.95 211.67,188.11 222.74,188.11 222.74,136.81 213.59,136.81 				"/>
				<rect x="121.72" y="136.8" class="st40" width="10.82" height="51.32"/>
				<path class="st40" d="M6.58,136.77L0,188.11h10.67l0.88-9.61h4.71l0.87,9.61h10.67l-6.61-51.34H6.58z M12.32,169.51l1.45-16.39
					h0.21l1.45,16.39H12.32z"/>
				<polygon class="st40" points="260.78,159.99 260.6,159.99 255.38,136.81 244.66,136.81 244.65,188.11 253.79,188.11 
					253.79,164.95 254,164.95 258.86,188.11 269.93,188.11 269.93,136.81 260.78,136.81 				"/>
			</g>
			<g>
				<path class="st40" d="M289.34,78.7c-0.58-1.39-3.22-7.06-4.83-10.02c-0.78-1.44-1.68-2.87-2.55-4.25
					c-0.85-1.36-1.66-2.63-2.17-3.65c-0.43-0.85-0.87-1.84-1.3-2.8c-0.63-1.4-2.11-4.34-2.11-4.34c-1.07-1.91-2.53-4.52-4.49-6.6
					c0,0-4.3-4.6-6.27-6.13c-1.36-1.06-3.31-2.32-4.64-3.14l1.29-2.82L256,30.98l-1.07,1.13c-17.9,18.86-28.16,45.72-28.16,73.71
					c0,7.09,0.61,13.86,1.87,20.68l0.29,1.55h1.58h38.84l-0.63-10.9c-0.14-1.4-0.19-2.3,0.44-3.11c0.43-0.55,2.94-1.58,7.17-2.13
					c0.54-0.07,1.28-0.13,2.06-0.19c4.04-0.32,8.21-0.65,9.19-3.28c0.79-2.12,0.39-3.79,0.03-5.26c-0.07-0.27-0.13-0.53-0.19-0.79
					l-0.06-0.27c-0.3-1.41-0.37-1.75-0.37-2.78c0-1.36-0.38-2.54-0.71-3.58c-0.07-0.22-0.14-0.43-0.2-0.64
					c-0.02-0.07-0.01-0.14,0.13-0.53c0.17-0.49,0.4-1.16,0.3-2.01c-0.06-0.47-0.22-0.98-0.41-1.59c-0.17-0.55-0.56-1.8-0.51-2.26
					c0.16-0.18,1.69-0.66,2.23-0.84c0.54-0.19,2.82-0.54,3.08-2.67C291.12,83.47,289.63,79.38,289.34,78.7z"/>
				<path class="st40" d="M31.41,67.64c0.49,0.06,1.96,1.04,2.25,1.21c0.3,0.17,0.61,0.07,0.81-0.26c0.2-0.34-0.06-0.56-0.4-1.07
					c-0.39-0.8,0.5-2.4,1.14-2.68c0.64-0.28,1.59-0.65,3.04-0.81c1.44-0.16,3.68-0.21,6.31-0.07c2.63,0.14,4.05,1.06,5.86,1.11
					c1.81,0.06,2.5-0.31,3.46-0.38c0.96-0.07,5.04,0.81,5.03,0.21c-0.05-0.35-0.95-0.97-1.83-1.23c-0.88-0.26-8.94-0.91-10.27-1.56
					c-0.87-0.36-3.89-1.07-5.79-0.95c-1.9,0.12-9.25,0.39-10.91,0.64c-1.66,0.25-2.84-0.27-3.95-0.19c-0.44,0.03-0.56,0.39-0.35,0.6
					c0.26,0.26,1.48,1.39,1.95,2.99C28.22,66.79,30.92,67.57,31.41,67.64z"/>
				<path class="st40" d="M62.22,84.38c1.75-1.27,2.25-3.35,1.45-4.83c-0.51-0.94-1.21-1.99-2.94-2.96
					c-1.84-1.04-4.25-1.26-5.69-1.27c-1.45-0.01-6.29,1.01-9.14,1.96c-2.85,0.96-8.36,4.09-10.34,5.12
					c-1.98,1.04-6.36,4.22-7.78,5.43c-0.05,0.02,0,0.14,0.02,0.17c0.83-0.4,6.19-3.46,8.33-4.58c2.14-1.11,4.12-1.7,5.72-2.33
					c1.6-0.62,3.89-1.36,5.41-1.61c3.13-0.52,6.54-0.37,8.08,0.22c0.55,0.21,1.3,0.59,0.8,1.36c-0.32,0.48-1.52,2.9-1.53,5.03
					c-0.01,2.32,1.97,4.15,3.81,4.31c1.84,0.15,3.25-0.12,4.03-1.57c0.68-1.27,0.52-2.04-0.45-2.92
					C61.45,85.39,61.43,84.95,62.22,84.38z"/>
				<path class="st40" d="M60.11,94.89c-1.01-0.28-2.46-0.42-3.82-0.85c-1.55-0.5-2.88-1.63-3.74-3.37
					c-0.87-1.74-0.74-3.11-0.24-5.05c0.47-1.84,0.86-2.29,1.1-2.99c0.36-1.01-1.24-2.12-2.28-1.45c-1.48,0.95-1.98,2.7-2.4,3.94
					c-0.5,1.48-0.5,4.03-0.44,4.95c0.09,1.39,1.04,3.89,2.58,5.34c0.75,0.71,2.73,1.81,4.56,2.33c1.83,0.52,4.33,0.09,4.99-0.38
					C61.92,96.3,61.12,95.17,60.11,94.89z"/>
				<path class="st40" d="M40.73,91.36c-0.61-1.91-0.52-3.69-0.83-3.96c-0.25-0.22-2.15,0.46-2.92,0.84
					c-0.77,0.37-3.35,1.66-4.77,2.41c-1.42,0.75-2.17,0.82-1.94,1.45c0.23,0.63,0.58,1.18,2.47,1.3c1.68,0.1,3.44-0.34,3.84-0.45
					c0.76-0.21,0.79,2.37,2.06,3.18c0.66,0.42,3.5,0.86,4.18,0.02c0.62-0.76-0.47-1.77-0.74-2.11C41.49,93.27,41,92.21,40.73,91.36z
					"/>
				<path class="st5" d="M274.35,61.71c-0.12-0.31-0.42-0.52-0.82-0.54c-0.5-0.04-0.99,0.04-1.51,0.12
					c-0.73,0.11-1.48,0.22-2.39,0.08c-1.2-0.18-5.22-0.37-8.15-0.5l-2.8-0.14c-1.91-0.12-5,0.58-5.98,0.98
					c-0.81,0.4-4.56,0.83-7.05,1.12c-1.81,0.21-2.85,0.33-3.18,0.43c-0.8,0.24-2.04,0.91-2.14,1.59l0,0.03v0.03
					c0,0.16,0.07,0.32,0.19,0.43c0.38,0.34,1.29,0.26,3.4-0.02c0.76-0.1,1.54-0.2,1.84-0.18c0.31,0.02,0.6,0.08,0.93,0.14
					c0.6,0.12,1.36,0.27,2.58,0.24c0.89-0.03,1.69-0.25,2.53-0.49c0.97-0.27,1.98-0.56,3.34-0.63c2.42-0.13,4.69-0.1,6.24,0.07
					c1.37,0.15,2.27,0.49,2.91,0.77c0.2,0.09,0.61,0.56,0.84,1.19c0.14,0.37,0.16,0.7,0.08,0.89c-0.05,0.08-0.1,0.15-0.15,0.22
					c-0.26,0.36-0.55,0.76-0.24,1.28c0.32,0.54,0.9,0.71,1.4,0.42c0.06-0.04,0.16-0.1,0.29-0.18c0.99-0.62,1.6-0.95,1.8-0.97
					c0.44-0.06,3.47-0.86,4.02-2.76c0.41-1.4,1.44-2.41,1.78-2.74l0.06-0.06C274.38,62.3,274.46,61.99,274.35,61.71z"/>
				<path class="st5" d="M237.37,85.57c-1.16,0.98-1.32,2.02-0.55,3.46c0.98,1.84,2.9,1.93,4.45,1.8c2.01-0.17,4.23-2.16,4.22-4.74
					c-0.01-2.16-1.22-4.49-1.59-5.15c-0.13-0.23-0.09-0.43-0.03-0.56c0.09-0.19,0.26-0.34,0.45-0.38c1.49-0.32,4.84-0.61,8.01-0.09
					c1.49,0.25,3.75,0.98,5.32,1.59c0.43,0.17,0.89,0.33,1.37,0.51c1.3,0.47,2.76,1,4.31,1.8c1.14,0.59,3.2,1.74,5.01,2.75
					c1.57,0.88,2.93,1.64,3.33,1.83l0.28,0.14l0.22-0.22c0.11-0.11,0.2-0.32,0.16-0.51l-0.04-0.22c-0.02-0.03-0.22-0.13-0.22-0.13
					l0.09,0.06c-1.4-1.19-5.79-4.4-7.86-5.49l-1.58-0.85c-2.59-1.4-6.51-3.53-8.82-4.3c-2.81-0.94-7.75-2-9.28-1.98
					c-1.34,0.01-3.9,0.2-5.9,1.33c-1.78,1.01-2.55,2.1-3.11,3.14c-0.93,1.72-0.28,3.93,1.57,5.39c0.22,0.17,0.35,0.37,0.36,0.54
					C237.54,85.37,237.49,85.47,237.37,85.57z"/>
				<path class="st5" d="M239.44,98.16c0.78,0.55,3.44,0.99,5.37,0.44c1.91-0.54,3.94-1.69,4.73-2.43c1.57-1.48,2.62-4.02,2.72-5.63
					c0.05-0.82,0.08-3.52-0.47-5.12l-0.09-0.27c-0.41-1.24-0.98-2.94-2.49-3.9c-0.78-0.5-1.72-0.25-2.3,0.22
					c-0.6,0.48-0.84,1.15-0.63,1.75c0.09,0.24,0.18,0.45,0.29,0.67c0.22,0.47,0.49,1.05,0.81,2.28c0.49,1.89,0.59,3.14-0.21,4.74
					c-0.79,1.58-1.99,2.67-3.48,3.15c-0.77,0.25-1.59,0.4-2.32,0.53c-0.54,0.1-1.04,0.2-1.48,0.32c-0.76,0.21-1.33,0.76-1.44,1.4
					C238.37,96.69,238.42,97.44,239.44,98.16z"/>
				<path class="st5" d="M257.68,93.77c-0.03,0.04-0.08,0.09-0.14,0.16c-0.41,0.47-1.36,1.56-0.59,2.5
					c0.89,1.09,4.01,0.53,4.75,0.07c0.79-0.5,1.14-1.49,1.43-2.28c0.12-0.31,0.29-0.78,0.39-0.87c-0.02,0.02-0.07,0.03-0.11,0.02
					c0.35,0.1,2.2,0.57,3.98,0.46c1.95-0.12,2.54-0.7,2.86-1.59c0.3-0.83-0.41-1.16-1.16-1.5c-0.29-0.13-0.61-0.28-0.99-0.48
					c-1.43-0.76-4.03-2.06-4.78-2.42c-0.03-0.01-2.77-1.32-3.4-0.77c-0.27,0.24-0.33,0.69-0.44,1.51c-0.09,0.71-0.21,1.67-0.52,2.65
					C258.72,91.96,258.27,93.01,257.68,93.77z"/>
				<path class="st41" d="M277.64,123.71c0-2.87,2.33-4.99,5.08-4.99c2.73,0,5.05,2.12,5.05,4.99c0,2.9-2.33,5.02-5.05,5.02
					C279.97,128.73,277.64,126.61,277.64,123.71z M282.73,127.89c2.26,0,4.05-1.77,4.05-4.18c0-2.37-1.79-4.15-4.05-4.15
					c-2.29,0-4.08,1.79-4.08,4.15C278.65,126.12,280.44,127.89,282.73,127.89z M281.67,126.61h-0.87v-5.77h2.2
					c1.36,0,2.04,0.5,2.04,1.64c0,1.03-0.65,1.48-1.5,1.59l1.64,2.54h-0.98l-1.52-2.5h-1.01V126.61z M282.71,123.37
					c0.74,0,1.4-0.05,1.4-0.94c0-0.71-0.65-0.85-1.26-0.85h-1.19v1.79H282.71z"/>
				<path class="st40" d="M44.39,32.11l-1.07-1.13l-6.43,4.07l1.67,2.82c-1.32,0.82-3.17,2.02-4.48,3.04
					c-1.97,1.53-3.77,3.46-5.51,5.32l-0.76,0.81c-1.96,2.08-3.43,4.69-4.5,6.6l-0.16,0.29c-0.67,1.18-1.32,2.64-1.95,4.04
					c-0.43,0.96-0.87,1.95-1.3,2.8c-0.51,1.01-1.31,2.29-2.17,3.65c-0.87,1.38-1.77,2.8-2.55,4.25c-1.6,2.96-4.25,8.63-4.83,10.02
					c-0.28,0.68-1.78,4.78-1.55,6.54c0.27,2.13,2.01,2.46,2.67,2.59c0.14,0.03,0.28,0.05,0.42,0.09l0.13,0.03
					c1.43,0.35,1.93,0.63,2.09,0.81c0.05,0.46-0.34,1.71-0.51,2.26c-0.19,0.6-0.35,1.12-0.41,1.59c-0.11,0.85,0.13,1.52,0.3,2.01
					c0.13,0.39,0.15,0.46,0.13,0.53c-0.06,0.21-0.13,0.42-0.2,0.64c-0.33,1.05-0.71,2.23-0.71,3.58c0,1.03-0.07,1.36-0.37,2.78
					l-0.06,0.27c-0.06,0.26-0.12,0.52-0.19,0.79c-0.36,1.47-0.77,3.14,0.03,5.26c0.98,2.62,5.16,2.95,9.19,3.28
					c0.78,0.06,1.53,0.12,2.06,0.19c4.23,0.55,6.74,1.58,7.17,2.13c0.64,0.81,0.58,1.71,0.44,3.11l-0.05,0.5
					c-0.16,1.83-0.47,8.15-0.48,8.41l-0.1,1.99h39.98l0.29-1.55c1.3-7.05,1.93-13.82,1.93-20.68
					C72.54,77.83,62.28,50.97,44.39,32.11z M67.13,124.26h-32.8c0.11-2.06,0.27-5.14,0.37-6.28l0.04-0.45
					c0.16-1.59,0.37-3.77-1.23-5.82c-1.65-2.12-6.17-3.11-9.67-3.56c-0.63-0.08-1.42-0.15-2.25-0.22c-1.54-0.12-5.08-0.41-5.99-1
					c-0.29-0.89-0.15-1.62,0.15-2.85c0.07-0.28,0.14-0.58,0.21-0.89l0.06-0.26c0.32-1.51,0.46-2.14,0.46-3.57
					c0-0.76,0.26-1.57,0.53-2.43c0.07-0.23,0.15-0.46,0.22-0.7c0.38-1.26,0.03-2.26-0.17-2.85c-0.04-0.12-0.09-0.27-0.11-0.34
					c0.04-0.17,0.16-0.57,0.26-0.87c0.45-1.43,1.01-3.21,0.46-4.71c-0.8-2.2-4.88-3.21-4.88-3.21c-0.06-0.01-0.1-0.02-0.15-0.03
					c0.2-1.03,0.72-2.88,1.2-4.04c0.54-1.3,3.14-6.86,4.66-9.67c0.72-1.33,1.59-2.7,2.42-4.03c0.91-1.44,1.76-2.79,2.35-3.97
					c0.46-0.93,0.92-1.95,1.37-2.95c0.59-1.33,1.21-2.7,1.79-3.73l0.17-0.3c1.03-1.83,2.31-4.11,3.95-5.86l0.77-0.82
					c1.64-1.75,3.33-3.57,5.07-4.92c2.02-1.57,5.67-3.74,5.71-3.77l1.63-0.97l-1.71-2.89l0.65-0.41
					c16.58,18.1,26.08,43.48,26.08,69.94C68.75,111.95,68.2,118,67.13,124.26z"/>
				<g>
					<path class="st40" d="M132.8,114.47h12.68l0.54-11.43l-10.83-6.27l11.14-0.78l0.25-11.47l-11.44-6.17l11.49-1.27l-0.25-11.74
						l-11.97-5.32l11.52-2.6l-0.83-11.5l-12.03-4.08l11.1-3.33l-1.78-12.14l-12.15-2.78l10.3-7.42l-3.14-16.12l-1.55-0.01
						c-0.46,0-11.54-0.02-25.59,3.31c-12.59,2.99-18.9,4.91-31.47,10.43C68.06,18.47,59.42,23.83,56.09,26l-1.78-2.26l-7.43,4.99
						l1.46,1.63c17.89,19.9,27.75,46.7,27.75,75.47c0,6.79-0.55,13.53-1.64,20.02l-0.37,2.21h72.89L132.8,114.47z M52.57,29.47
						l0.93-0.62l0.69,0.87l1.1,1.4l1.46-1.01c0.1-0.07,10.38-7.09,23.57-12.87c12.4-5.44,18.29-7.24,30.82-10.21
						c10.64-2.53,19.67-3.06,23.15-3.18l2.07,10.64L121.23,25.4l17.79,4.08l0.93,6.33l-19.35,5.8l20.9,7.09l0.41,5.73l-19.51,4.41
						l20.23,8.99l0.12,5.86l-20.13,2.23l20.1,10.84l-0.12,5.69l-20.03,1.41l19.54,11.32l-0.26,5.51h-18.5l14.16,13.59H78.51
						c0.89-6.02,1.37-12.21,1.37-18.44C79.88,76.89,70.18,49.88,52.57,29.47z"/>
					<path class="st40" d="M251.44,28.46l-6.9-4.58l-2.03,2.11c-3.21-2.09-11.85-7.47-22.72-12.23
						c-12.13-5.32-18.61-7.27-31.91-10.43c-12.44-2.95-22.38-3.28-25.12-3.31L161.18,0l-3.14,16.15l10.3,7.42l-12.15,2.78
						l-1.78,12.14l11.1,3.33l-12.03,4.08l-0.82,11.47l11.83,2.92l-12.28,4.99l-0.25,11.75l12.09,1.59l-12.04,5.83l0.24,11.45
						l12.29,1.43l-11.98,6.07l0.55,11.51h13.55l-15.48,13.15l73.04-0.03l-0.37-2.21c-1.1-6.55-1.65-13.28-1.65-20
						c0-28.49,10.13-56.09,27.78-75.72L251.44,28.46z"/>
				</g>
			</g>
		</g>
	</g>
</g>
</svg>
