<?xml version="1.0" encoding="utf-8"?>
<!-- Generator: Adobe Illustrator 23.0.2, SVG Export Plug-In . SVG Version: 6.00 Build 0)  -->
<svg version="1.1" id="Capa_1" xmlns="http://www.w3.org/2000/svg" xmlns:xlink="http://www.w3.org/1999/xlink" x="0px" y="0px"
	 viewBox="0 0 50 50" style="enable-background:new 0 0 50 50;" xml:space="preserve">
<style type="text/css">
	.st0{fill:#2E2E2E;}
	.st1{fill:#998B82;}
	.st2{fill:#2B0F03;}
	.st3{fill:#57C178;}
	.st4{fill:#E6E6E6;}
	.st5{fill:#00AD9A;}
	.st6{fill:none;stroke:#2E2E2E;stroke-width:2;stroke-linecap:round;stroke-miterlimit:10;}
	.st7{fill:#7F7F7F;}
	.st8{fill:none;}
	.st9{clip-path:url(#SVGID_2_);}
</style>
<g>
	<path class="st0" d="M17.17,22.42h-8.1c-1.42,0-2.58,1.15-2.58,2.58c0,1.42,1.16,2.58,2.58,2.58h8.1c1.42,0,2.58-1.15,2.58-2.58
		C19.75,23.57,18.59,22.42,17.17,22.42L17.17,22.42z M17.17,22.42"/>
</g>
<g>
	<path class="st0" d="M40.93,22.42H26.6c-1.42,0-2.58,1.15-2.58,2.58c0,1.42,1.16,2.58,2.58,2.58h14.33c1.42,0,2.58-1.15,2.58-2.58
		C43.51,23.57,42.36,22.42,40.93,22.42L40.93,22.42z M40.93,22.42"/>
</g>
<circle class="st0" cx="17.7" cy="25" r="4.51"/>
<g>
	<path class="st0" d="M24.41,33.98H9.07c-1.42,0-2.58,1.15-2.58,2.58c0,1.42,1.16,2.58,2.58,2.58h15.35c1.42,0,2.58-1.15,2.58-2.58
		C26.99,35.13,25.84,33.98,24.41,33.98L24.41,33.98z M24.41,33.98"/>
</g>
<g>
	<path class="st0" d="M40.93,33.98h-6.98c-1.42,0-2.58,1.15-2.58,2.58c0,1.42,1.16,2.58,2.58,2.58h6.98c1.42,0,2.58-1.15,2.58-2.58
		C43.51,35.13,42.36,33.98,40.93,33.98L40.93,33.98z M40.93,33.98"/>
</g>
<circle class="st0" cx="33.21" cy="36.56" r="4.51"/>
<g>
	<path class="st0" d="M37.72,10.87H9.07c-1.42,0-2.58,1.15-2.58,2.58c0,1.42,1.16,2.58,2.58,2.58h28.65c1.42,0,2.58-1.15,2.58-2.58
		C40.3,12.02,39.14,10.87,37.72,10.87L37.72,10.87z M37.72,10.87"/>
</g>
<circle class="st0" cx="39.01" cy="13.44" r="4.51"/>
</svg>
