<?xml version="1.0" encoding="utf-8"?>
<!-- Generator: Adobe Illustrator 23.0.2, SVG Export Plug-In . SVG Version: 6.00 Build 0)  -->
<svg version="1.1" id="Capa_1" xmlns="http://www.w3.org/2000/svg" xmlns:xlink="http://www.w3.org/1999/xlink" x="0px" y="0px"
	 viewBox="0 0 40.45 50" style="enable-background:new 0 0 40.45 50;" xml:space="preserve">
<style type="text/css">
	.st0{fill:#2E2E2E;}
	.st1{fill:#998B82;}
	.st2{fill:#2B0F03;}
	.st3{fill:#57C178;}
	.st4{fill:#E6E6E6;}
	.st5{fill:#00AD9A;}
	.st6{fill:none;stroke:#2E2E2E;stroke-width:2;stroke-linecap:round;stroke-miterlimit:10;}
	.st7{fill:#7F7F7F;}
	.st8{fill:none;}
</style>
<g>
	<rect x="10.74" y="33.87" class="st8" width="7.25" height="6.71"/>
	<rect x="10.74" y="22.02" class="st8" width="7.25" height="6.71"/>
	<rect x="10.74" y="9.42" class="st8" width="7.25" height="6.71"/>
	<polygon class="st0" points="12.38,4.63 12.38,4.63 12.38,4.63 	"/>
	<path class="st0" d="M28.94,4.63H12.38l0,0v0H7.75L7.57,4.69c-0.82,0.2-1.42,0.85-1.58,1.65v37.35c0.2,0.96,1.05,1.69,2.07,1.69
		h24.28c1.17,0,2.11-0.95,2.11-2.11v-2.52c0-0.39-0.32-0.7-0.7-0.7c-0.39,0-0.7,0.32-0.7,0.7v2.52c0,0.39-0.32,0.7-0.7,0.7H8.06
		c-0.39,0-0.7-0.32-0.7-0.7V37.3c0-1.02,0-29.27,0-30.56c0-0.38,0.32-0.7,0.7-0.7h24.28c0.39,0,0.7,0.32,0.7,0.7v30.7
		c0,0.39,0.32,0.7,0.7,0.7c0.39,0,0.7-0.32,0.7-0.7V6.74c0-1.17-0.95-2.11-2.11-2.11h-2H28.94z"/>
	<path class="st0" d="M19.4,9.37c0-0.75-0.61-1.36-1.36-1.36h-7.34c-0.75,0-1.36,0.61-1.36,1.36v6.81c0,0.75,0.61,1.36,1.36,1.36
		h7.34c0.75,0,1.36-0.61,1.36-1.36V9.37z M17.99,16.13h-7.25V9.42h7.25V16.13z"/>
	<path class="st0" d="M18.04,32.46h-7.34c-0.75,0-1.36,0.61-1.36,1.36v6.81c0,0.75,0.61,1.36,1.36,1.36h7.34
		c0.75,0,1.36-0.61,1.36-1.36v-6.81C19.4,33.07,18.79,32.46,18.04,32.46z M17.99,40.58h-7.25v-6.71h7.25V40.58z"/>
	<path class="st0" d="M19.4,21.98c0-0.75-0.61-1.36-1.36-1.36h-7.34c-0.75,0-1.36,0.61-1.36,1.36v6.81c0,0.75,0.61,1.36,1.36,1.36
		h7.34c0.75,0,1.36-0.61,1.36-1.36V21.98z M17.99,28.74h-7.25v-6.71h7.25V28.74z"/>
	<path class="st0" d="M30.37,10.74h-8.71c-0.39,0-0.7,0.32-0.7,0.7c0,0.39,0.32,0.7,0.7,0.7h8.71c0.39,0,0.7-0.32,0.7-0.7
		C31.08,11.06,30.76,10.74,30.37,10.74z"/>
	<path class="st0" d="M21.66,14.81h3.26c0.39,0,0.7-0.32,0.7-0.7c0-0.39-0.32-0.7-0.7-0.7h-3.26c-0.39,0-0.7,0.32-0.7,0.7
		C20.96,14.5,21.28,14.81,21.66,14.81z"/>
	<path class="st0" d="M30.37,23.34h-8.71c-0.39,0-0.7,0.32-0.7,0.7s0.32,0.7,0.7,0.7h8.71c0.39,0,0.7-0.32,0.7-0.7
		S30.76,23.34,30.37,23.34z"/>
	<path class="st0" d="M21.66,27.42h3.26c0.39,0,0.7-0.32,0.7-0.7c0-0.39-0.32-0.7-0.7-0.7h-3.26c-0.39,0-0.7,0.32-0.7,0.7
		C20.96,27.1,21.28,27.42,21.66,27.42z"/>
	<path class="st0" d="M31.08,35.89c0-0.39-0.32-0.7-0.7-0.7h-8.71c-0.39,0-0.7,0.32-0.7,0.7c0,0.39,0.32,0.7,0.7,0.7h8.71
		C30.76,36.6,31.08,36.28,31.08,35.89z"/>
	<path class="st0" d="M21.66,37.85c-0.39,0-0.7,0.32-0.7,0.7s0.32,0.7,0.7,0.7h3.26c0.39,0,0.7-0.32,0.7-0.7s-0.32-0.7-0.7-0.7
		H21.66z"/>
</g>
</svg>
