<?xml version="1.0" encoding="utf-8"?>
<!-- Generator: Adobe Illustrator 23.0.2, SVG Export Plug-In . SVG Version: 6.00 Build 0)  -->
<svg version="1.1" id="Capa_1" xmlns="http://www.w3.org/2000/svg" xmlns:xlink="http://www.w3.org/1999/xlink" x="0px" y="0px"
	 viewBox="0 0 54 50" style="enable-background:new 0 0 54 50;" xml:space="preserve">
<style type="text/css">
	.st0{fill:none;}
	.st1{fill:#2E2E2E;}
	.st2{fill:#CE1126;}
	.st3{fill:#003893;}
	.st4{fill:#FCD116;}
	.st5{fill:#FFFFFF;}
	.st6{fill:none;stroke:#F8F8F8;stroke-width:3;stroke-miterlimit:10;}
	.st7{fill:none;stroke:#FFFFFF;stroke-width:0.25;stroke-miterlimit:10;}
	.st8{fill:#2E2E2E;stroke:#E6E6E6;stroke-miterlimit:10;}
	.st9{fill:#F8F8F8;}
	.st10{fill:#E6E6E6;}
	.st11{fill:none;stroke:#FFFFFF;stroke-miterlimit:10;}
	.st12{fill:#D0156C;}
	.st13{fill:#761928;}
	.st14{fill:url(#SVGID_1_);}
	.st15{fill:#DEA83E;}
	.st16{fill:url(#SVGID_2_);}
	.st17{fill:url(#SVGID_3_);}
	.st18{fill:url(#SVGID_4_);}
	.st19{fill:url(#SVGID_5_);}
	.st20{clip-path:url(#SVGID_7_);}
	.st21{fill:#272425;}
	.st22{fill:#D26F2C;}
	.st23{fill:none;stroke:#272425;stroke-width:0.3584;stroke-miterlimit:10;}
	.st24{fill:#1A171B;}
	.st25{fill:none;stroke:#2E2E2E;stroke-width:0.5;stroke-miterlimit:10;}
	.st26{fill:#998B82;}
	.st27{fill:#2B0F03;}
	.st28{fill:#424242;}
	.st29{fill:#57C178;}
</style>
<g>
	<g>
		<path class="st1" d="M16.17,28.89c8.78,8.32,9.73,15.56,9.73,18.29v0.01c0,0.61,0.49,1.1,1.11,1.1c0.61,0,1.1-0.49,1.1-1.1
			c0-4.39,2.56-11.5,9.73-18.31c3.17-3.01,4.92-7.06,4.92-11.43c0-4.23-1.65-8.2-4.65-11.18C35.13,3.32,31.19,1.7,27,1.7
			c-0.04,0-0.08,0-0.12,0c-4.11,0.03-7.99,1.64-10.94,4.55c-2.95,2.9-4.61,6.76-4.7,10.87C11.16,21.55,12.95,25.84,16.17,28.89z
			 M17.5,7.82c2.53-2.5,5.87-3.89,9.4-3.91c0.03,0,0.07,0,0.1,0c3.6,0,6.98,1.39,9.54,3.93c2.58,2.56,4,5.97,4,9.61
			c0,3.75-1.5,7.24-4.23,9.83c-3.63,3.44-7.44,8.43-9.29,13.71c-2.14-6.32-6.95-11.44-9.34-13.71c-2.76-2.62-4.3-6.31-4.23-10.12
			C13.53,13.64,14.97,10.32,17.5,7.82z"/>
		<path class="st1" d="M27,22.61c2.82,0,5.11-2.29,5.11-5.11c0-2.82-2.29-5.11-5.11-5.11s-5.11,2.29-5.11,5.11
			C21.89,20.32,24.18,22.61,27,22.61z M27,14.6c1.6,0,2.9,1.3,2.9,2.9c0,1.6-1.3,2.9-2.9,2.9c-1.6,0-2.9-1.3-2.9-2.9
			C24.1,15.9,25.4,14.6,27,14.6z"/>
	</g>
</g>
</svg>
