<?xml version="1.0" encoding="utf-8"?>
<!-- Generator: Adobe Illustrator 23.0.2, SVG Export Plug-In . SVG Version: 6.00 Build 0)  -->
<svg version="1.1" id="Capa_1" xmlns="http://www.w3.org/2000/svg" xmlns:xlink="http://www.w3.org/1999/xlink" x="0px" y="0px"
	 viewBox="0 0 50 50" style="enable-background:new 0 0 50 50;" xml:space="preserve">
<style type="text/css">
	.st0{fill:#2E2E2E;}
	.st1{fill:#998B82;}
	.st2{fill:#2B0F03;}
	.st3{fill:#57C178;}
	.st4{fill:#E6E6E6;}
	.st5{fill:#00AD9A;}
	.st6{fill:none;stroke:#2E2E2E;stroke-width:2;stroke-linecap:round;stroke-miterlimit:10;}
	.st7{fill:#7F7F7F;}
	.st8{fill:none;}
	.st9{clip-path:url(#SVGID_2_);}
</style>
<g>
	<path class="st0" d="M37.83,8.53l-29.3,29.3c-1.01,1.01-1.01,2.64,0,3.65c1.01,1.01,2.64,1.01,3.65,0l29.3-29.3
		c1.01-1.01,1.01-2.64,0-3.65C40.47,7.52,38.83,7.52,37.83,8.53L37.83,8.53z M37.83,8.53"/>
</g>
<g>
	<path class="st0" d="M8.53,12.17l29.32,29.3c1.01,1.01,2.64,1.01,3.65,0c1.01-1.01,1.01-2.64,0-3.65L12.18,8.52
		c-1.01-1.01-2.64-1.01-3.65,0C7.52,9.53,7.52,11.17,8.53,12.17L8.53,12.17z M8.53,12.17"/>
</g>
</svg>
