<?xml version="1.0" encoding="utf-8"?>
<!-- Generator: Adobe Illustrator 23.0.2, SVG Export Plug-In . SVG Version: 6.00 Build 0)  -->
<svg version="1.1" id="Capa_1" xmlns="http://www.w3.org/2000/svg" xmlns:xlink="http://www.w3.org/1999/xlink" x="0px" y="0px"
	 viewBox="0 0 50 50" style="enable-background:new 0 0 50 50;" xml:space="preserve">
<style type="text/css">
	.st0{fill:#2E2E2E;}
	.st1{fill:#998B82;}
	.st2{fill:#2B0F03;}
	.st3{fill:#57C178;}
	.st4{fill:#E6E6E6;}
	.st5{fill:#00AD9A;}
	.st6{fill:none;stroke:#2E2E2E;stroke-width:2;stroke-linecap:round;stroke-miterlimit:10;}
	.st7{fill:#7F7F7F;}
	.st8{fill:none;}
	.st9{clip-path:url(#SVGID_2_);}
	.st10{fill:none;stroke:#C0413E;stroke-width:0.5;stroke-miterlimit:10;}
	.st11{clip-path:url(#SVGID_4_);}
	.st12{opacity:0.7;fill:#FFFFFF;}
	.st13{clip-path:url(#SVGID_6_);}
	.st14{clip-path:url(#SVGID_8_);}
	.st15{clip-path:url(#SVGID_10_);}
</style>
<g>
	<path class="st0" d="M44.78,13l-19.5-9.42c-0.17-0.08-0.37-0.08-0.55,0L5.22,13c-0.22,0.1-0.36,0.33-0.36,0.57v22.87
		c0,0.24,0.14,0.46,0.36,0.57l19.5,9.42c0.09,0.04,0.18,0.06,0.27,0.06c0.09,0,0.19-0.02,0.27-0.06L44.78,37
		c0.22-0.1,0.36-0.33,0.36-0.57V13.57C45.13,13.33,44.99,13.11,44.78,13z M25,4.85l18.06,8.72l-5.23,2.53
		c-0.03-0.03-0.07-0.05-0.11-0.07L19.78,7.37L25,4.85z M18.36,8.08l18.03,8.7l-3.69,1.78l-18.02-8.7L18.36,8.08z M33.36,19.64
		l3.45-1.67v6.59l-3.45,1.67V19.64z M25.63,44.85V23.38l4.35-2.1c0.31-0.15,0.44-0.53,0.29-0.84c-0.15-0.31-0.53-0.44-0.84-0.29
		L25,22.28l-1.74-0.84c-0.31-0.15-0.69-0.02-0.84,0.29s-0.02,0.69,0.29,0.84l1.66,0.8v21.47L6.13,36.04V14.57l13.89,6.71
		c0.09,0.04,0.18,0.06,0.27,0.06c0.23,0,0.46-0.13,0.57-0.36c0.15-0.31,0.02-0.69-0.29-0.84L6.94,13.57l6.25-3.02l18.9,9.12
		c0,0,0.01,0.01,0.01,0.01v7.55c0,0.22,0.11,0.42,0.29,0.53c0.1,0.06,0.22,0.1,0.33,0.1c0.09,0,0.19-0.02,0.27-0.06l4.71-2.27
		c0.22-0.1,0.36-0.33,0.36-0.57v-7.59l5.8-2.8v21.47L25.63,44.85z"/>
	<path class="st0" d="M11.32,33.6l-2.86-1.38c-0.31-0.15-0.69-0.02-0.84,0.29c-0.15,0.31-0.02,0.69,0.29,0.84l2.86,1.38
		c0.09,0.04,0.18,0.06,0.27,0.06c0.23,0,0.46-0.13,0.57-0.36C11.76,34.12,11.63,33.75,11.32,33.6z"/>
	<path class="st0" d="M13.95,31.88l-5.49-2.65c-0.31-0.15-0.69-0.02-0.84,0.29c-0.15,0.31-0.02,0.69,0.29,0.84l5.49,2.65
		c0.09,0.04,0.18,0.06,0.27,0.06c0.23,0,0.46-0.13,0.57-0.36C14.4,32.41,14.27,32.03,13.95,31.88z"/>
</g>
</svg>
