<?xml version="1.0" encoding="utf-8"?>
<!-- Generator: Adobe Illustrator 23.0.2, SVG Export Plug-In . SVG Version: 6.00 Build 0)  -->
<svg version="1.1" id="Capa_1" xmlns="http://www.w3.org/2000/svg" xmlns:xlink="http://www.w3.org/1999/xlink" x="0px" y="0px"
	 viewBox="0 0 54 50" style="enable-background:new 0 0 54 50;" xml:space="preserve">
<style type="text/css">
	.st0{fill:none;}
	.st1{fill:#2E2E2E;}
	.st2{fill:#CE1126;}
	.st3{fill:#003893;}
	.st4{fill:#FCD116;}
	.st5{fill:#FFFFFF;}
	.st6{fill:none;stroke:#F8F8F8;stroke-width:3;stroke-miterlimit:10;}
	.st7{fill:none;stroke:#FFFFFF;stroke-width:0.25;stroke-miterlimit:10;}
	.st8{fill:#2E2E2E;stroke:#E6E6E6;stroke-miterlimit:10;}
	.st9{fill:#F8F8F8;}
	.st10{fill:#E6E6E6;}
	.st11{fill:none;stroke:#FFFFFF;stroke-miterlimit:10;}
	.st12{fill:#D0156C;}
	.st13{fill:#761928;}
	.st14{fill:url(#SVGID_1_);}
	.st15{fill:#DEA83E;}
	.st16{fill:url(#SVGID_2_);}
	.st17{fill:url(#SVGID_3_);}
	.st18{fill:url(#SVGID_4_);}
	.st19{fill:url(#SVGID_5_);}
	.st20{clip-path:url(#SVGID_7_);}
	.st21{fill:#272425;}
	.st22{fill:#D26F2C;}
	.st23{fill:none;stroke:#272425;stroke-width:0.3584;stroke-miterlimit:10;}
	.st24{fill:#1A171B;}
	.st25{fill:none;stroke:#2E2E2E;stroke-width:0.5;stroke-miterlimit:10;}
	.st26{fill:#998B82;}
	.st27{fill:#2B0F03;}
	.st28{fill:#424242;}
	.st29{fill:#57C178;}
</style>
<g>
	<g>
		<path class="st1" d="M38.33,32.83h-9.39c-1.17,0-2.12,0.94-2.12,2.12v4.21c0,1.15,0.94,2.12,2.12,2.12h9.39
			c1.16,0,2.12-0.96,2.12-2.12v-4.21C40.45,33.77,39.5,32.83,38.33,32.83z M28.23,39.16v-4.21c0-0.4,0.33-0.71,0.71-0.71h3.98v5.64
			h-3.98C28.56,39.87,28.23,39.54,28.23,39.16z M39.04,39.16c0,0.38-0.31,0.71-0.7,0.71h-3.99v-5.64h3.99c0.39,0,0.7,0.31,0.7,0.71
			V39.16z"/>
	</g>
	<g>
		<path class="st1" d="M49.62,46.89h-4.41V30.48c0.21,0.04,0.43,0.06,0.65,0.06c2.45,0,4.44-2.03,4.48-4.55l0,0
			c0-0.02,0-0.04,0-0.06c0-0.02-0.01-0.02-0.01-0.04c0-0.06-0.02-0.13-0.04-0.19c0-0.02-0.01-0.04-0.02-0.06
			c-0.03-0.08-0.07-0.15-0.13-0.19l-0.01-0.02l0,0L45,20.38c-0.13-0.13-0.3-0.21-0.49-0.21h-5.64h-5.95h-0.93
			c-0.4,0-0.71,0.33-0.71,0.71c0,0.4,0.32,0.71,0.71,0.71h0.42l1.19,3.63h-6.56l0,0h-6.56l1.18-3.63h0.43c0.39,0,0.7-0.31,0.7-0.71
			c0-0.38-0.31-0.71-0.7-0.71h-0.94H15.2H9.55c-0.19,0-0.37,0.08-0.49,0.21l-5.13,5.05l0,0c-0.01,0-0.01,0.02-0.01,0.02
			c-0.05,0.04-0.09,0.11-0.13,0.19c-0.01,0.02-0.02,0.04-0.03,0.06c-0.02,0.06-0.03,0.13-0.03,0.19c-0.01,0.02-0.01,0.02-0.01,0.04
			c0,0.02,0,0.04,0,0.06l0,0c0.04,2.52,2.03,4.55,4.48,4.55c0.22,0,0.43-0.02,0.64-0.06v16.41H4.42c-0.39,0-0.7,0.32-0.7,0.71
			c0,0.38,0.32,0.69,0.7,0.69h5.13h4.77h8.47h21.72h5.12c0.4,0,0.71-0.31,0.71-0.69C50.34,47.21,50.02,46.89,49.62,46.89z
			 M45.86,29.14c-1.46,0-2.67-1.07-2.99-2.49h5.98C48.54,28.07,47.32,29.14,45.86,29.14z M47.9,25.22h-5.42l-2.33-3.63h4.07
			L47.9,25.22z M38.48,21.59l2.33,3.63h-5.72l-1.2-3.63H38.48z M41.32,26.64c-0.3,1.43-1.53,2.49-2.99,2.49
			c-1.46,0-2.67-1.07-2.99-2.49H41.32z M33.78,26.64c-0.31,1.43-1.53,2.49-2.99,2.49c-1.46,0-2.68-1.07-2.99-2.49H33.78z
			 M18.99,25.22h-5.73l2.34-3.63h4.58L18.99,25.22z M18.71,26.64c-0.3,1.43-1.53,2.49-2.99,2.49s-2.67-1.07-2.99-2.49H18.71z
			 M26.25,26.64c-0.3,1.43-1.53,2.49-2.99,2.49c-1.46,0-2.67-1.07-2.99-2.49H26.25z M9.85,21.59h4.06l-2.33,3.63H6.15L9.85,21.59z
			 M5.21,26.64h5.96c-0.3,1.43-1.53,2.49-2.98,2.49C6.74,29.14,5.52,28.07,5.21,26.64z M22.09,39.87h-7.06v-4.93
			c0-0.4,0.31-0.71,0.71-0.71h5.65c0.39,0,0.7,0.31,0.7,0.71V39.87z M15.02,46.89v-5.62h7.06v5.62H15.02z M23.5,46.89V34.95
			c0-1.17-0.95-2.12-2.12-2.12h-5.65c-1.17,0-2.13,0.94-2.13,2.12v11.95h-3.36V30.02c0.7-0.38,1.29-0.92,1.71-1.61
			c0.8,1.28,2.18,2.14,3.76,2.14s2.98-0.86,3.77-2.14c0.79,1.28,2.18,2.14,3.76,2.14c1.58,0,2.98-0.86,3.77-2.14
			c0.79,1.28,2.18,2.14,3.76,2.14c1.58,0,2.98-0.86,3.76-2.14c0.8,1.28,2.19,2.14,3.77,2.14c1.58,0,2.97-0.86,3.76-2.14
			c0.42,0.69,1.01,1.24,1.71,1.61v16.87H23.5z"/>
	</g>
	<g>
		<path class="st1" d="M27.04,24.02c0.2,0,0.4-0.11,0.53-0.25c0.28-0.36,7.16-8.51,7.16-14.26c0-4.25-3.46-7.72-7.69-7.72
			c-4.26,0-7.7,3.46-7.7,7.72c0,5.74,6.86,13.9,7.16,14.26C26.63,23.92,26.83,24.02,27.04,24.02z M27.04,3.23
			c3.46,0,6.28,2.81,6.28,6.29c0,4.36-4.67,10.65-6.28,12.66c-1.61-2.01-6.3-8.3-6.3-12.66C20.74,6.04,23.56,3.23,27.04,3.23z"/>
	</g>
	<g>
		<path class="st1" d="M30.56,9.58c0-1.95-1.58-3.54-3.52-3.54c-1.95,0-3.54,1.59-3.54,3.54c0,1.95,1.59,3.52,3.54,3.52
			C28.97,13.1,30.56,11.53,30.56,9.58z M24.91,9.58c0-1.17,0.96-2.12,2.13-2.12c1.16,0,2.11,0.94,2.11,2.12
			c0,1.15-0.94,2.12-2.11,2.12C25.86,11.7,24.91,10.73,24.91,9.58z"/>
	</g>
</g>
</svg>
