<?xml version="1.0" encoding="utf-8"?>
<!-- Generator: Adobe Illustrator 23.0.2, SVG Export Plug-In . SVG Version: 6.00 Build 0)  -->
<svg version="1.1" id="Capa_1" xmlns="http://www.w3.org/2000/svg" xmlns:xlink="http://www.w3.org/1999/xlink" x="0px" y="0px"
	 viewBox="0 0 54 50" style="enable-background:new 0 0 54 50;" xml:space="preserve">
<style type="text/css">
	.st0{fill:#FFFFFF;}
</style>
<g>
	<path class="st0" d="M35.59,48.3c-2.55,0-4.62-2.07-4.62-4.62c0-0.53,0.09-1.04,0.27-1.54l0.28-0.8h-3.99l0.28,0.8
		c0.18,0.5,0.27,1.01,0.27,1.54c0,2.55-2.07,4.62-4.62,4.62s-4.62-2.07-4.62-4.62c0-0.53,0.09-1.05,0.26-1.54l0.28-0.8h-2.73
		c-1.65,0-3.06-1.23-3.29-2.86L8.67,4.82C8.6,4.31,8.16,3.93,7.65,3.93H4.32c-0.63,0-1.14-0.51-1.14-1.14s0.51-1.14,1.14-1.14h3.33
		c1.65,0,3.06,1.23,3.29,2.86l0.45,3.23h35.96c1.01,0,1.95,0.45,2.58,1.23s0.88,1.8,0.66,2.78L46.3,31.76
		c-0.33,1.52-1.69,2.62-3.24,2.62H15.1l0.53,3.78c0.07,0.51,0.51,0.89,1.02,0.89h27.64c0.63,0,1.14,0.51,1.14,1.14
		s-0.51,1.14-1.14,1.14h-4.62l0.28,0.8c0.18,0.5,0.26,1.01,0.26,1.54C40.22,46.22,38.14,48.3,35.59,48.3z M35.6,41.34
		c-1.29,0-2.34,1.05-2.34,2.34s1.05,2.34,2.34,2.34s2.34-1.05,2.34-2.34C37.93,42.39,36.88,41.34,35.6,41.34z M23.46,41.34
		c-1.29,0-2.34,1.05-2.34,2.34s1.05,2.34,2.34,2.34s2.34-1.05,2.34-2.34C25.79,42.39,24.75,41.34,23.46,41.34z M14.78,32.09h28.27
		c0.48,0,0.91-0.34,1.01-0.82l4.29-20.01c0.07-0.31-0.01-0.62-0.21-0.87s-0.48-0.38-0.8-0.38H11.7L14.78,32.09z"/>
</g>
</svg>
