<?xml version="1.0" encoding="utf-8"?>
<!-- Generator: Adobe Illustrator 23.0.2, SVG Export Plug-In . SVG Version: 6.00 Build 0)  -->
<svg version="1.1" id="Capa_1" xmlns="http://www.w3.org/2000/svg" xmlns:xlink="http://www.w3.org/1999/xlink" x="0px" y="0px"
	 viewBox="0 0 50 50" style="enable-background:new 0 0 50 50;" xml:space="preserve">
<style type="text/css">
	.st0{fill:none;}
	.st1{fill:#2E2E2E;}
	.st2{fill:#CE1126;}
	.st3{fill:#003893;}
	.st4{fill:#FCD116;}
	.st5{fill:#FFFFFF;}
	.st6{fill:none;stroke:#F8F8F8;stroke-width:3;stroke-miterlimit:10;}
	.st7{fill:none;stroke:#FFFFFF;stroke-width:0.25;stroke-miterlimit:10;}
	.st8{fill:#2E2E2E;stroke:#E6E6E6;stroke-miterlimit:10;}
	.st9{fill:#F8F8F8;}
	.st10{fill:#E6E6E6;}
	.st11{fill:none;stroke:#FFFFFF;stroke-miterlimit:10;}
	.st12{fill:#D0156C;}
	.st13{fill:#E6EAEB;}
	.st14{fill:url(#SVGID_1_);}
	.st15{fill:#DEA83E;}
	.st16{fill:url(#SVGID_2_);}
	.st17{fill:url(#SVGID_3_);}
	.st18{fill:url(#SVGID_4_);}
	.st19{fill:#761928;}
	.st20{fill:url(#SVGID_5_);}
	.st21{clip-path:url(#SVGID_7_);}
	.st22{fill:#272425;}
	.st23{fill:#D26F2C;}
	.st24{fill:none;stroke:#272425;stroke-width:0.3584;stroke-miterlimit:10;}
	.st25{fill:#1A171B;}
	.st26{fill:none;stroke:#2E2E2E;stroke-width:0.5;stroke-miterlimit:10;}
	.st27{fill:#998B82;}
	.st28{fill:#2B0F03;}
	.st29{fill:#424242;}
	.st30{fill:#57C178;}
	.st31{opacity:0.5;fill:#FFFFFF;}
	.st32{fill:#FFDCDC;}
	.st33{fill:#FF503A;}
	.st34{enable-background:new    ;}
	.st35{fill:#E5502E;}
	.st36{fill:#FFDF43;}
	.st37{fill:#CD6117;}
	.st38{fill:#FDE732;}
	.st39{fill:#262424;}
	.st40{fill:#CB2128;}
	.st41{fill:#193D6A;}
	.st42{fill:#00369C;}
</style>
<g>
	<g>
		<path class="st1" d="M24.44,49.22c-0.38,0-0.77-0.15-1.06-0.44L4.63,30.02c-2.77-2.77-2.77-7.28,0-10.05L23.38,1.22
			c0.59-0.59,1.54-0.59,2.12,0c0.59,0.59,0.59,1.54,0,2.12L6.75,22.1c-1.6,1.6-1.6,4.21,0,5.81l18.75,18.75
			c0.59,0.59,0.59,1.54,0,2.12C25.21,49.07,24.83,49.22,24.44,49.22z"/>
	</g>
	<g>
		<path class="st1" d="M45.95,26.5H12.32c-0.83,0-1.5-0.67-1.5-1.5s0.67-1.5,1.5-1.5h33.63c0.83,0,1.5,0.67,1.5,1.5
			S46.78,26.5,45.95,26.5z"/>
	</g>
</g>
</svg>
