<?xml version="1.0" encoding="utf-8"?>
<!-- Generator: Adobe Illustrator 23.0.2, SVG Export Plug-In . SVG Version: 6.00 Build 0)  -->
<svg version="1.1" id="Capa_1" xmlns="http://www.w3.org/2000/svg" xmlns:xlink="http://www.w3.org/1999/xlink" x="0px" y="0px"
	 viewBox="0 0 54 50" style="enable-background:new 0 0 54 50;" xml:space="preserve">
<style type="text/css">
	.st0{fill:#FFFFFF;}
</style>
<g>
	<path class="st0" d="M43.04,42.95v4.58c0,0.43-0.35,0.77-0.77,0.77c-0.43,0-0.77-0.35-0.77-0.77v-4.58c0-3.56-2.88-6.45-6.45-6.45
		c-1.69,0-3.22-0.86-4.09-2.3c-0.22-0.37-0.11-0.84,0.26-1.06s0.84-0.11,1.06,0.26c0.59,0.97,1.63,1.55,2.77,1.55
		C39.46,34.95,43.04,38.53,43.04,42.95L43.04,42.95z M29.52,35.18c0.09,0.42-0.17,0.83-0.59,0.92c-2.04,0.44-4.11,0-5.76-1.13
		c-1.63,1.75-3.79,1.52-3.5,1.52c-3.56,0-6.45,2.88-6.45,6.45v4.58c0,0.43-0.35,0.77-0.77,0.77c-0.43,0-0.77-0.35-0.77-0.77v-4.58
		c0-4.42,3.58-7.99,7.99-7.99c1.79,0,3.24-1.44,3.24-3.23v-0.2c-3.38-1.62-5.75-5.01-5.9-8.97c-1.39-0.33-2.43-1.58-2.43-3.06v-4.02
		c-0.04-1.97,0.25-6.89,3.84-10.35c4.43-4.27,11.54-4,16.77-1.49c0.51,0.25,0.59,0.93,0.16,1.29c2.65,0.65,4.93,2.27,6.4,4.6
		c0.08,0.12,0.21,0.31,0.18,0.61c-0.02,0.19-0.08,0.35-0.22,0.49c-0.94,0.96-1.46,2.23-1.46,3.57v5.28c0,0.43-0.35,0.77-0.77,0.77
		s-0.77-0.35-0.77-0.77V14.2c0-1.55,0.53-3.03,1.5-4.21c-1.48-2.12-3.8-3.49-6.42-3.77L32.4,6.08c-0.8-0.09-0.95-1.18-0.21-1.49
		l0.62-0.25c-8.06-2.81-16.69,0.31-16.69,11.13v4.02c0,0.61,0.35,1.15,0.87,1.42v-5.02c0-2.99,2.43-5.42,5.42-5.42h9.88
		c2.99,0,5.42,2.43,5.42,5.42v6.34c0,6.74-6.58,11.85-13.28,9.88c-0.04,0.55-0.18,1.09-0.41,1.58c1.3,0.9,2.95,1.26,4.57,0.9
		C29.02,34.5,29.43,34.76,29.52,35.18L29.52,35.18z M27.35,30.98c4.86,0,8.81-3.95,8.81-8.81v-6.28c0-2.14-1.74-3.87-3.87-3.87
		h-9.88c-2.14,0-3.87,1.74-3.87,3.87v6.28C18.54,27.03,22.49,30.98,27.35,30.98L27.35,30.98z M35.2,44.33h-2.32
		c-0.43,0-0.77,0.35-0.77,0.77c0,0.43,0.35,0.77,0.77,0.77h2.32c0.43,0,0.77-0.35,0.77-0.77C35.97,44.67,35.62,44.33,35.2,44.33
		L35.2,44.33z"/>
</g>
</svg>
