<?xml version="1.0" encoding="utf-8"?>
<!-- Generator: Adobe Illustrator 23.0.2, SVG Export Plug-In . SVG Version: 6.00 Build 0)  -->
<svg version="1.1" id="Capa_1" xmlns="http://www.w3.org/2000/svg" xmlns:xlink="http://www.w3.org/1999/xlink" x="0px" y="0px"
	 viewBox="0 0 50 50" style="enable-background:new 0 0 50 50;" xml:space="preserve">
<style type="text/css">
	.st0{fill:#FFFFFF;}
</style>
<g>
	<path class="st0" d="M46.37,19.82c-0.33-1.03-1.28-1.72-2.37-1.72H30.8L26.72,5.54c-0.34-1.03-1.29-1.72-2.37-1.72
		c-1.08,0-2.03,0.69-2.37,1.72L17.9,18.1H4.7c-1.08,0-2.03,0.69-2.37,1.72C2,20.85,2.36,21.97,3.23,22.6l10.68,7.76L9.84,42.92
		c-0.33,1.03,0.03,2.15,0.9,2.78c0.88,0.64,2.05,0.64,2.93,0l10.68-7.76l10.68,7.76c0.44,0.32,0.95,0.48,1.46,0.48
		c0.51,0,1.03-0.16,1.46-0.48c0.88-0.64,1.24-1.75,0.9-2.78l-4.08-12.56l10.68-7.76C46.34,21.97,46.7,20.85,46.37,19.82L46.37,19.82
		z M32.08,27.95c-0.87,0.64-1.24,1.75-0.9,2.78l3.31,10.2l-8.68-6.3c-0.44-0.32-0.95-0.48-1.46-0.48c-0.51,0-1.03,0.16-1.46,0.48
		l-8.68,6.3l3.31-10.2c0.33-1.03-0.03-2.15-0.9-2.78l-8.68-6.3h10.73c1.08,0,2.03-0.69,2.37-1.72l3.31-10.2l3.31,10.2
		c0.33,1.03,1.29,1.72,2.37,1.72h10.72L32.08,27.95z M32.08,27.95"/>
</g>
</svg>
