<?xml version="1.0" encoding="utf-8"?>
<!-- Generator: Adobe Illustrator 23.0.2, SVG Export Plug-In . SVG Version: 6.00 Build 0)  -->
<svg version="1.1" id="Capa_1" xmlns="http://www.w3.org/2000/svg" xmlns:xlink="http://www.w3.org/1999/xlink" x="0px" y="0px"
	 viewBox="0 0 50 50" style="enable-background:new 0 0 50 50;" xml:space="preserve">
<style type="text/css">
	.st0{fill:#2E2E2E;}
	.st1{fill:#998B82;}
	.st2{fill:#2B0F03;}
	.st3{fill:#57C178;}
	.st4{fill:#E6E6E6;}
	.st5{fill:#00AD9A;}
	.st6{fill:none;stroke:#2E2E2E;stroke-width:2;stroke-linecap:round;stroke-miterlimit:10;}
	.st7{fill:#7F7F7F;}
	.st8{fill:none;}
	.st9{clip-path:url(#SVGID_2_);}
	.st10{fill:none;stroke:#C0413E;stroke-width:0.5;stroke-miterlimit:10;}
	.st11{clip-path:url(#SVGID_4_);}
	.st12{opacity:0.7;fill:#FFFFFF;}
	.st13{clip-path:url(#SVGID_6_);}
	.st14{clip-path:url(#SVGID_8_);}
	.st15{clip-path:url(#SVGID_10_);}
</style>
<g>
	<g>
		<path class="st0" d="M41.62,30.84c-0.74-1.1-1.99-1.75-3.31-1.74h-2.5l8.55-13.07c0.15-0.22,0.17-0.51,0.05-0.75
			c-0.12-0.24-0.36-0.4-0.63-0.41c-0.27-0.01-0.53,0.12-0.67,0.35L30.59,34.34H19.41L6.9,15.21c-0.14-0.23-0.4-0.36-0.67-0.35
			c-0.27,0.01-0.51,0.17-0.63,0.41c-0.12,0.24-0.1,0.53,0.05,0.75l8.55,13.07h-2.5c-1.33-0.01-2.57,0.64-3.31,1.74L2.9,39.12
			c-0.25,0.36-0.38,0.78-0.37,1.21v3c0,1.24,1.01,2.25,2.25,2.25h40.45c1.24,0,2.25-1.01,2.25-2.25v-3c0-0.43-0.13-0.85-0.37-1.21
			L41.62,30.84z M14.26,30.6h0.92l3.21,4.9c0.14,0.21,0.37,0.34,0.63,0.34h11.98c0.25,0,0.49-0.13,0.63-0.34l3.21-4.9h1.67
			l0.71,1.63l-0.23,0.11c-1,0.51-1.47,1.66-1.12,2.73l0.8,2.4c0.26,0.79,0.94,1.38,1.76,1.51l1.88,0.31l0.79,1.79H9.67L14.26,30.6z
			 M4.15,39.95l5.47-8.28c0.46-0.68,1.24-1.09,2.07-1.07h0.93L8.03,41.08H4.87c-0.44,0.02-0.81-0.31-0.84-0.75
			C4.03,40.2,4.07,40.06,4.15,39.95L4.15,39.95z M45.97,43.33c0,0.41-0.34,0.75-0.75,0.75H4.78c-0.41,0-0.75-0.34-0.75-0.75v-0.9
			c0.27,0.1,0.55,0.15,0.84,0.16h40.27c0.29,0,0.57-0.05,0.84-0.16V43.33z M45.13,41.08h-2.42L41.5,38.3
			c-0.12-0.27-0.39-0.45-0.69-0.45l-2.15-0.36c-0.27-0.05-0.5-0.24-0.59-0.5l-0.8-2.41c-0.12-0.35,0.04-0.74,0.37-0.91l0.65-0.33
			c0.23-0.03,0.43-0.17,0.54-0.38c0.11-0.2,0.12-0.45,0.03-0.66l-0.75-1.72h0.18c0.82-0.01,1.6,0.39,2.06,1.07l5.48,8.29
			c0.08,0.11,0.12,0.24,0.12,0.37C45.95,40.77,45.57,41.11,45.13,41.08L45.13,41.08z M45.13,41.08"/>
	</g>
	<g>
		<path class="st0" d="M26.6,13.05c-0.33,0-0.6,0.27-0.6,0.6v0.85c0,0.33,0.27,0.6,0.6,0.6c0.33,0,0.6-0.27,0.6-0.6v-0.85
			C27.2,13.32,26.93,13.05,26.6,13.05z"/>
		<path class="st0" d="M23.4,15.1c0.33,0,0.6-0.27,0.6-0.6v-0.85c0-0.33-0.27-0.6-0.6-0.6c-0.33,0-0.6,0.27-0.6,0.6v0.85
			C22.8,14.83,23.07,15.1,23.4,15.1z"/>
		<path class="st0" d="M26.09,16.1c-0.29,0.29-0.68,0.45-1.09,0.45c-0.41,0-0.8-0.16-1.08-0.45c-0.23-0.23-0.62-0.24-0.85,0
			c-0.23,0.23-0.24,0.62,0,0.85c0.52,0.52,1.2,0.8,1.94,0.8c0.73,0,1.42-0.29,1.94-0.8c0.23-0.24,0.23-0.62,0-0.85
			C26.7,15.86,26.32,15.86,26.09,16.1z"/>
		<path class="st0" d="M37.12,14.08c0,0.33,0.27,0.6,0.6,0.6h0.59c0.33,0,0.6-0.27,0.6-0.6c0-0.33-0.27-0.6-0.6-0.6h-0.59
			C37.39,13.48,37.12,13.75,37.12,14.08z"/>
		<path class="st0" d="M36.44,11.58c0.15,0,0.31-0.06,0.43-0.18l0.26-0.26c0.23-0.23,0.23-0.62,0-0.85c-0.23-0.23-0.62-0.23-0.85,0
			l-0.26,0.26c-0.23,0.23-0.23,0.62,0,0.85C36.13,11.52,36.28,11.58,36.44,11.58z"/>
		<path class="st0" d="M36.27,17.86c0.12,0.12,0.27,0.18,0.42,0.18c0.15,0,0.31-0.06,0.43-0.18c0.23-0.23,0.23-0.62,0-0.85
			l-0.26-0.26c-0.23-0.23-0.62-0.23-0.85,0c-0.23,0.23-0.23,0.62,0,0.85L36.27,17.86z"/>
		<path class="st0" d="M11.69,14.68h0.59c0.33,0,0.6-0.27,0.6-0.6c0-0.33-0.27-0.6-0.6-0.6h-0.59c-0.33,0-0.6,0.27-0.6,0.6
			C11.09,14.41,11.36,14.68,11.69,14.68z"/>
		<path class="st0" d="M13.14,16.75l-0.26,0.26c-0.23,0.23-0.23,0.62,0,0.85c0.12,0.12,0.27,0.18,0.42,0.18
			c0.15,0,0.31-0.06,0.43-0.18l0.26-0.26c0.23-0.23,0.23-0.62,0-0.85C13.75,16.51,13.37,16.51,13.14,16.75z"/>
		<path class="st0" d="M13.14,11.41c0.12,0.12,0.27,0.18,0.43,0.18c0.15,0,0.31-0.06,0.42-0.18c0.23-0.23,0.23-0.62,0-0.85
			l-0.26-0.26c-0.23-0.23-0.62-0.23-0.85,0c-0.23,0.23-0.23,0.62,0,0.85L13.14,11.41z"/>
		<path class="st0" d="M33.82,6.91h-2.19V5.02c0-0.33-0.27-0.6-0.6-0.6h-2.85c-1.32,0-2.5,0.67-3.18,1.73
			c-0.68-1.06-1.86-1.73-3.18-1.73h-2.85c-0.33,0-0.6,0.27-0.6,0.6v1.89h-2.19c-0.33,0-0.6,0.27-0.6,0.6v3.16
			c0,0.33,0.27,0.6,0.6,0.6h0.57v8.69h-0.02v1.24h16.49v-0.97h0.02v-8.96h0.57c0.33,0,0.6-0.27,0.6-0.6V7.51
			C34.42,7.18,34.15,6.91,33.82,6.91z M28.18,5.63h2.25v1.28h-4.48C26.4,6.13,27.23,5.63,28.18,5.63z M19.57,5.63h2.25
			c0.94,0,1.78,0.5,2.23,1.28h-4.49V5.63z M16.78,8.11h16.44v1.96H16.78V8.11z M17.96,11.27h14.09v8.69H17.96V11.27z"/>
	</g>
</g>
</svg>
