<?xml version="1.0" encoding="utf-8"?>
<!-- Generator: Adobe Illustrator 23.0.2, SVG Export Plug-In . SVG Version: 6.00 Build 0)  -->
<svg version="1.1" id="Capa_1" xmlns="http://www.w3.org/2000/svg" xmlns:xlink="http://www.w3.org/1999/xlink" x="0px" y="0px"
	 viewBox="0 0 44.81 50" style="enable-background:new 0 0 44.81 50;" xml:space="preserve">
<style type="text/css">
	.st0{fill:none;}
	.st1{fill:#2E2E2E;}
	.st2{fill:#CE1126;}
	.st3{fill:#003893;}
	.st4{fill:#FCD116;}
	.st5{fill:#FFFFFF;}
	.st6{fill:none;stroke:#F8F8F8;stroke-width:3;stroke-miterlimit:10;}
	.st7{fill:none;stroke:#FFFFFF;stroke-width:0.25;stroke-miterlimit:10;}
	.st8{fill:#2E2E2E;stroke:#E6E6E6;stroke-miterlimit:10;}
	.st9{fill:#F8F8F8;}
	.st10{fill:#E6E6E6;}
	.st11{fill:none;stroke:#FFFFFF;stroke-miterlimit:10;}
	.st12{fill:#D0156C;}
	.st13{fill:#761928;}
	.st14{fill:url(#SVGID_1_);}
	.st15{fill:#DEA83E;}
	.st16{fill:url(#SVGID_2_);}
	.st17{fill:url(#SVGID_3_);}
	.st18{fill:url(#SVGID_4_);}
	.st19{fill:url(#SVGID_5_);}
	.st20{clip-path:url(#SVGID_7_);}
	.st21{fill:#272425;}
	.st22{fill:#D26F2C;}
	.st23{fill:none;stroke:#272425;stroke-width:0.3584;stroke-miterlimit:10;}
	.st24{fill:#1A171B;}
	.st25{fill:none;stroke:#2E2E2E;stroke-width:0.5;stroke-miterlimit:10;}
	.st26{fill:#998B82;}
	.st27{fill:#2B0F03;}
	.st28{fill:#424242;}
	.st29{fill:#57C178;}
</style>
<g>
	<path class="st29" d="M28.06,8.36c-0.39,0-0.72-0.28-0.78-0.68c-0.36-2.51-2.54-4.4-5.08-4.4c-1.63,0-3.18,0.79-4.15,2.11
		c-0.26,0.35-0.75,0.43-1.1,0.17c-0.35-0.26-0.43-0.75-0.17-1.1c1.26-1.73,3.29-2.76,5.42-2.76c3.32,0,6.18,2.48,6.65,5.76
		c0.06,0.43-0.24,0.83-0.67,0.89C28.14,8.36,28.1,8.36,28.06,8.36z"/>
	<path class="st29" d="M39.57,17.5H4.82c-0.28,0-0.55-0.15-0.69-0.4C4,16.85,4,16.55,4.15,16.3l2.37-3.95
		c0.14-0.24,0.4-0.38,0.68-0.38h1.28c0.44,0,0.79,0.35,0.79,0.79c0,0.44-0.35,0.79-0.79,0.79H7.64l-1.42,2.37h31.96l-1.42-2.37
		h-1.82c-0.44,0-0.79-0.35-0.79-0.79c0-0.44,0.35-0.79,0.79-0.79h2.27c0.28,0,0.53,0.15,0.68,0.38l2.37,3.95
		c0.15,0.24,0.15,0.55,0.01,0.8C40.12,17.34,39.86,17.5,39.57,17.5z"/>
	<path class="st29" d="M34.02,17.19c-0.06,0-0.12-0.01-0.18-0.02c-0.42-0.1-0.69-0.52-0.59-0.95l1.45-6.2l-9.23-2.16l-0.63,2.7
		c-0.1,0.42-0.52,0.69-0.95,0.59c-0.42-0.1-0.69-0.52-0.59-0.95l0.81-3.47c0.05-0.2,0.17-0.38,0.35-0.49
		c0.18-0.11,0.39-0.15,0.6-0.1l10.77,2.52c0.2,0.05,0.38,0.17,0.49,0.35c0.11,0.18,0.15,0.39,0.1,0.6l-1.63,6.97
		C34.7,16.95,34.37,17.19,34.02,17.19z"/>
	<path class="st29" d="M9.1,17.39c-0.39,0-0.74-0.3-0.78-0.7L7.12,6.55C7.07,6.11,7.38,5.72,7.81,5.67l13.21-1.56
		c0.21-0.02,0.42,0.03,0.58,0.16c0.16,0.13,0.27,0.32,0.3,0.53l0.72,6.09c0.05,0.43-0.26,0.83-0.69,0.88
		c-0.44,0.05-0.83-0.26-0.88-0.69l-0.63-5.3L8.78,7.14l1.11,9.37c0.05,0.43-0.26,0.83-0.69,0.88C9.17,17.39,9.13,17.39,9.1,17.39z"
		/>
	<path class="st29" d="M28.09,17.38c-0.36,0-0.68-0.24-0.77-0.6l-1.38-5.75l-11.19,2.69l0.6,2.49c0.1,0.42-0.16,0.85-0.58,0.95
		c-0.42,0.1-0.85-0.16-0.95-0.58l-0.78-3.26c-0.1-0.42,0.16-0.85,0.58-0.95l12.72-3.06c0.2-0.05,0.42-0.01,0.6,0.09
		c0.18,0.11,0.31,0.29,0.36,0.49l1.57,6.52c0.1,0.42-0.16,0.85-0.58,0.95C28.22,17.37,28.16,17.38,28.09,17.38z"/>
	<path class="st29" d="M41.15,48.3H3.25c-0.22,0-0.42-0.09-0.57-0.25c-0.15-0.16-0.23-0.37-0.22-0.58l1.58-30.8
		c0.02-0.42,0.37-0.75,0.79-0.75h34.75c0.42,0,0.77,0.33,0.79,0.75l1.58,30.8c0.01,0.22-0.07,0.43-0.22,0.58
		C41.58,48.21,41.37,48.3,41.15,48.3z M4.08,46.72h36.25l-1.5-29.22H5.58L4.08,46.72z"/>
	<path class="st29" d="M28.12,23.82c-1.31,0-2.37-1.06-2.37-2.37c0-1.31,1.06-2.37,2.37-2.37c1.31,0,2.37,1.06,2.37,2.37
		C30.49,22.75,29.43,23.82,28.12,23.82z M28.12,20.66c-0.44,0-0.79,0.35-0.79,0.79c0,0.44,0.35,0.79,0.79,0.79
		c0.44,0,0.79-0.35,0.79-0.79C28.91,21.01,28.56,20.66,28.12,20.66z"/>
	<path class="st29" d="M16.28,23.82c-1.31,0-2.37-1.06-2.37-2.37c0-1.31,1.06-2.37,2.37-2.37s2.37,1.06,2.37,2.37
		C18.65,22.75,17.58,23.82,16.28,23.82z M16.28,20.66c-0.44,0-0.79,0.35-0.79,0.79c0,0.44,0.35,0.79,0.79,0.79
		c0.44,0,0.79-0.35,0.79-0.79C17.07,21.01,16.71,20.66,16.28,20.66z"/>
	<path class="st29" d="M22.2,33.29c-3.7,0-6.71-3.01-6.71-6.71v-4.34c0-0.44,0.35-0.79,0.79-0.79s0.79,0.35,0.79,0.79v4.34
		c0,2.83,2.3,5.13,5.13,5.13s5.13-2.3,5.13-5.13v-4.04c-0.04-0.09-0.06-0.2-0.06-0.3c0-0.44,0.35-0.79,0.79-0.79h0.06
		c0.44,0,0.79,0.35,0.79,0.79v4.34C28.91,30.28,25.9,33.29,22.2,33.29z"/>
</g>
</svg>
