<?xml version="1.0" encoding="utf-8"?>
<!-- Generator: Adobe Illustrator 23.0.2, SVG Export Plug-In . SVG Version: 6.00 Build 0)  -->
<svg version="1.1" id="Capa_1" xmlns="http://www.w3.org/2000/svg" xmlns:xlink="http://www.w3.org/1999/xlink" x="0px" y="0px"
	 viewBox="0 0 54 50" style="enable-background:new 0 0 54 50;" xml:space="preserve">
<style type="text/css">
	.st0{fill:none;}
	.st1{fill:#2E2E2E;}
	.st2{fill:#CE1126;}
	.st3{fill:#003893;}
	.st4{fill:#FCD116;}
	.st5{fill:#FFFFFF;}
	.st6{fill:none;stroke:#F8F8F8;stroke-width:3;stroke-miterlimit:10;}
	.st7{fill:none;stroke:#FFFFFF;stroke-width:0.25;stroke-miterlimit:10;}
	.st8{fill:#2E2E2E;stroke:#E6E6E6;stroke-miterlimit:10;}
	.st9{fill:#F8F8F8;}
	.st10{fill:#E6E6E6;}
	.st11{fill:none;stroke:#FFFFFF;stroke-miterlimit:10;}
	.st12{fill:#D0156C;}
	.st13{fill:#761928;}
	.st14{fill:url(#SVGID_1_);}
	.st15{fill:#DEA83E;}
	.st16{fill:url(#SVGID_2_);}
	.st17{fill:url(#SVGID_3_);}
	.st18{fill:url(#SVGID_4_);}
	.st19{fill:url(#SVGID_5_);}
	.st20{clip-path:url(#SVGID_7_);}
	.st21{fill:#272425;}
	.st22{fill:#D26F2C;}
	.st23{fill:none;stroke:#272425;stroke-width:0.3584;stroke-miterlimit:10;}
	.st24{fill:#1A171B;}
	.st25{fill:none;stroke:#2E2E2E;stroke-width:0.5;stroke-miterlimit:10;}
	.st26{fill:#998B82;}
	.st27{fill:#2B0F03;}
	.st28{fill:#424242;}
	.st29{fill:#57C178;}
</style>
<g>
	<path class="st1" d="M35.59,48.3c-2.55,0-4.62-2.07-4.62-4.62c0-0.53,0.09-1.04,0.27-1.54l0.28-0.8h-3.99l0.28,0.8
		c0.18,0.5,0.27,1.01,0.27,1.54c0,2.55-2.07,4.62-4.62,4.62s-4.62-2.07-4.62-4.62c0-0.53,0.09-1.05,0.26-1.54l0.28-0.8h-2.73
		c-1.65,0-3.06-1.23-3.29-2.86L8.67,4.82C8.6,4.31,8.16,3.93,7.65,3.93H4.32c-0.63,0-1.14-0.51-1.14-1.14s0.51-1.14,1.14-1.14h3.33
		c1.65,0,3.06,1.23,3.29,2.86l0.45,3.23h35.96c1.01,0,1.95,0.45,2.58,1.23c0.63,0.78,0.88,1.8,0.66,2.78L46.3,31.76
		c-0.33,1.52-1.69,2.62-3.24,2.62H15.1l0.53,3.78c0.07,0.51,0.51,0.89,1.02,0.89h27.64c0.63,0,1.14,0.51,1.14,1.14
		c0,0.63-0.51,1.14-1.14,1.14h-4.62l0.28,0.8c0.18,0.5,0.26,1.01,0.26,1.54C40.22,46.22,38.14,48.3,35.59,48.3z M35.6,41.34
		c-1.29,0-2.34,1.05-2.34,2.34c0,1.29,1.05,2.34,2.34,2.34c1.29,0,2.34-1.05,2.34-2.34C37.93,42.39,36.88,41.34,35.6,41.34z
		 M23.46,41.34c-1.29,0-2.34,1.05-2.34,2.34c0,1.29,1.05,2.34,2.34,2.34c1.29,0,2.34-1.05,2.34-2.34
		C25.79,42.39,24.75,41.34,23.46,41.34z M14.78,32.09h28.27c0.48,0,0.91-0.34,1.01-0.82l4.29-20.01c0.07-0.31-0.01-0.62-0.21-0.87
		c-0.2-0.25-0.48-0.38-0.8-0.38H11.7L14.78,32.09z"/>
</g>
</svg>
