<?xml version="1.0" encoding="utf-8"?>
<!-- Generator: Adobe Illustrator 23.0.2, SVG Export Plug-In . SVG Version: 6.00 Build 0)  -->
<svg version="1.1" id="Capa_1" xmlns="http://www.w3.org/2000/svg" xmlns:xlink="http://www.w3.org/1999/xlink" x="0px" y="0px"
	 viewBox="0 0 50 50" style="enable-background:new 0 0 50 50;" xml:space="preserve">
<style type="text/css">
	.st0{fill:#2E2E2E;}
	.st1{fill:#998B82;}
	.st2{fill:#2B0F03;}
	.st3{fill:#57C178;}
	.st4{fill:#E6E6E6;}
	.st5{fill:#00AD9A;}
	.st6{fill:none;stroke:#2E2E2E;stroke-width:2;stroke-linecap:round;stroke-miterlimit:10;}
	.st7{fill:#7F7F7F;}
	.st8{fill:none;}
	.st9{clip-path:url(#SVGID_2_);}
	.st10{fill:none;stroke:#C0413E;stroke-width:0.5;stroke-miterlimit:10;}
	.st11{clip-path:url(#SVGID_4_);}
	.st12{opacity:0.7;fill:#FFFFFF;}
	.st13{clip-path:url(#SVGID_6_);}
	.st14{clip-path:url(#SVGID_8_);}
	.st15{clip-path:url(#SVGID_10_);}
</style>
<g>
	<path class="st0" d="M43.23,13.93H28.26V8.07c0-1.8-1.46-3.26-3.26-3.26H8.07c-1.8,0-3.26,1.46-3.26,3.26v33.86
		c0,1.8,1.46,3.26,3.26,3.26H25c1.8,0,3.26-1.46,3.26-3.26v-9.77h-1.3v6.51H6.12V11.32h20.84v2.6h-5.86c-1.08,0-1.95,0.88-1.95,1.95
		v9.5l-5.48,5.48h29.57c1.08,0,1.95-0.88,1.95-1.95V15.88C45.19,14.81,44.31,13.93,43.23,13.93z M26.95,39.98v1.95
		c0,1.08-0.88,1.95-1.95,1.95H8.07c-1.08,0-1.95-0.88-1.95-1.95v-1.95H26.95z M6.12,10.02V8.07c0-1.08,0.88-1.95,1.95-1.95H25
		c1.08,0,1.95,0.88,1.95,1.95v1.95H6.12z M43.88,28.91c0,0.36-0.29,0.65-0.65,0.65H16.8l3.64-3.64V15.88c0-0.36,0.29-0.65,0.65-0.65
		h22.14c0.36,0,0.65,0.29,0.65,0.65V28.91z"/>
	<rect x="13.93" y="41.28" class="st0" width="5.21" height="1.3"/>
	<rect x="24.35" y="32.16" class="st0" width="1.3" height="1.3"/>
	<rect x="21.74" y="32.16" class="st0" width="1.3" height="1.3"/>
	<rect x="19.14" y="32.16" class="st0" width="1.3" height="1.3"/>
	<rect x="16.53" y="32.16" class="st0" width="1.3" height="1.3"/>
	<g>
		<path class="st0" d="M23.2,25.15c-0.74-0.15-1.12-0.73-1.12-1.55v-0.43h0.98v0.5c0,0.4,0.21,0.57,0.54,0.57
			c0.33,0,0.54-0.17,0.54-0.59c0-0.47-0.19-0.81-0.89-1.36c-0.85-0.67-1.14-1.2-1.14-1.91c0-0.8,0.37-1.37,1.09-1.52v-0.57h0.85
			v0.57c0.73,0.15,1.11,0.72,1.11,1.54v0.19h-0.98v-0.25c0-0.4-0.19-0.58-0.52-0.58c-0.33,0-0.52,0.18-0.52,0.56
			c0,0.43,0.19,0.76,0.89,1.32c0.85,0.68,1.14,1.2,1.14,1.95c0,0.85-0.39,1.42-1.12,1.57v0.66H23.2V25.15z"/>
		<path class="st0" d="M25.87,23.73v-0.52h0.98v0.59c0,0.47,0.21,0.64,0.54,0.64c0.33,0,0.54-0.17,0.54-0.64v-1.48
			c0-0.47-0.21-0.65-0.54-0.65c-0.33,0-0.54,0.18-0.54,0.65v0.06h-0.98l0.19-3.68h2.73v0.94h-1.81l-0.08,1.57h0.02
			c0.19-0.31,0.48-0.48,0.89-0.48c0.76,0,1.15,0.54,1.15,1.51v1.49c0,1.05-0.53,1.66-1.54,1.66C26.4,25.39,25.87,24.78,25.87,23.73z
			"/>
		<path class="st0" d="M29.66,24.29h1v1h-1V24.29z"/>
		<path class="st0" d="M31.36,23.73v-3.46c0-1.05,0.56-1.66,1.57-1.66c1.02,0,1.57,0.6,1.57,1.66v3.46c0,1.05-0.56,1.66-1.57,1.66
			C31.91,25.39,31.36,24.78,31.36,23.73z M33.47,23.8v-3.6c0-0.47-0.21-0.65-0.54-0.65c-0.33,0-0.54,0.18-0.54,0.65v3.6
			c0,0.47,0.21,0.65,0.54,0.65C33.26,24.45,33.47,24.27,33.47,23.8z"/>
		<path class="st0" d="M35.12,23.73v-3.46c0-1.05,0.56-1.66,1.57-1.66s1.57,0.6,1.57,1.66v3.46c0,1.05-0.56,1.66-1.57,1.66
			S35.12,24.78,35.12,23.73z M37.23,23.8v-3.6c0-0.47-0.21-0.65-0.54-0.65c-0.33,0-0.54,0.18-0.54,0.65v3.6
			c0,0.47,0.21,0.65,0.54,0.65C37.03,24.45,37.23,24.27,37.23,23.8z"/>
		<path class="st0" d="M38.89,23.73v-3.46c0-1.05,0.56-1.66,1.57-1.66s1.57,0.6,1.57,1.66v3.46c0,1.05-0.56,1.66-1.57,1.66
			S38.89,24.78,38.89,23.73z M41,23.8v-3.6c0-0.47-0.21-0.65-0.54-0.65c-0.33,0-0.54,0.18-0.54,0.65v3.6c0,0.47,0.21,0.65,0.54,0.65
			C40.79,24.45,41,24.27,41,23.8z"/>
	</g>
</g>
</svg>
