<?xml version="1.0" encoding="utf-8"?>
<!-- Generator: Adobe Illustrator 23.0.2, SVG Export Plug-In . SVG Version: 6.00 Build 0)  -->
<svg version="1.1" id="Capa_1" xmlns="http://www.w3.org/2000/svg" xmlns:xlink="http://www.w3.org/1999/xlink" x="0px" y="0px"
	 viewBox="0 0 125.77 50" style="enable-background:new 0 0 125.77 50;" xml:space="preserve">
<style type="text/css">
	.st0{fill:#2E2E2E;}
	.st1{fill:#998B82;}
	.st2{fill:#2B0F03;}
	.st3{fill:#57C178;}
	.st4{fill:#E6E6E6;}
	.st5{fill:#00AD9A;}
</style>
<g>
	<g>
		<g>
			<g>
				<path class="st4" d="M23.68,31.48l0.58-3.38c0.05-0.3,0.02-0.61-0.09-0.9c-0.68-1.78-2.97-7.74-3.21-8.39
					C19.23,14,19.06,8.76,20.56,3.88c0.02-0.05,0.03-0.11,0.05-0.16c0.21-0.69-0.66-1.19-1.14-0.64c-0.18,0.21-0.36,0.5-0.53,0.9
					C18.11,6,17.92,7.53,16.9,7.4c-0.78-0.1-4.4-4.8-7.23-6.32C8.97,0.71,8.31,1.67,8.93,2.18c0.91,0.76,2.2,1.98,3.87,3.9
					c0,0-4.91-3.25-7.29-3.94C4.94,1.96,4.46,1.89,4.06,1.88C3.31,1.86,3.09,2.89,3.79,3.16c1.56,0.6,4.19,1.88,7.63,4.54
					c0,0-6.27-2.7-8.34-2.92c-0.3-0.03-0.56-0.03-0.8-0.01c-0.73,0.06-0.82,1.09-0.12,1.3c1.45,0.42,3.96,1.35,7.96,3.4
					c0,0-4.21-0.81-5.27-0.79c-0.07,0-0.14,0-0.2,0C3.79,8.67,3.72,9.92,4.57,10c11.15,1.07,12.59,7.94,18.36,21.56
					C23.08,31.92,23.61,31.86,23.68,31.48z"/>
				<path class="st4" d="M71.01,12.57c2.23,0,4.06-1.76,4.06-3.97c0-2.21-1.82-4.02-4.06-4.02C68.78,4.58,67,6.39,67,8.6
					C67,10.81,68.78,12.57,71.01,12.57z"/>
				<path class="st4" d="M32.61,12.57c2.23,0,4.06-1.76,4.06-3.97c0-2.21-1.83-4.02-4.06-4.02c-2.23,0-4.01,1.81-4.01,4.02
					C28.6,10.82,30.38,12.57,32.61,12.57z"/>
				<path class="st4" d="M61.38,31.44l0.01-0.02c0.05-0.25-0.15-0.46-0.41-0.45c-0.18,0.01-0.36,0-0.54-0.04
					c-1.21-0.24-1.99-1.4-1.75-2.6l2.3-11.38c0.14-0.68-0.39-1.32-1.08-1.32h-3.19c-1.58,0-2.94,1.11-3.25,2.66l-1.79,8.87
					c-0.35,1.71-1.59,3.13-3.26,3.63c-0.62,0.18-1.05,0.18-1.25,0.16c-0.04,0-0.09-0.01-0.13-0.02c-1.21-0.24-1.99-1.4-1.75-2.6
					l2.3-11.38c0.14-0.68-0.39-1.32-1.08-1.32h-3.16c-1.59,0-2.95,1.13-3.26,2.68l-1.52,7.82c-0.37,1.92-1.58,3.58-3.31,4.5
					c-0.88,0.47-1.92,0.98-3.15,1.54l3.06-15.22c0.14-0.68-0.39-1.32-1.08-1.32h-3.19c-1.58,0-2.94,1.11-3.25,2.66L25.47,29
					l-1.24,6.06l0,0c-10.65,3.2-10.61,8.97-8.22,11.83c2.8,3.35,7.96,1.71,7.96,1.71c1.09-0.3,2.87-1.16,4.09-2.63
					c1.43-1.72,1.87-3.23,2.3-4.65l0.69-3.55c0.24-1.23,1.03-2.28,2.14-2.85c2-1.03,4.91-2.53,4.91-2.53
					c0.64,1.53,2.01,2.73,3.77,3.08c4.35,0.84,8-2.62,9.33-4.1c0.37,2,1.94,3.67,4.08,4.1C58.09,36.02,60.82,34.22,61.38,31.44z
					 M23.63,38.1l-0.03-0.01l-0.58,3c-0.96,4.41-4.02,3.68-4.58,2.4c-0.57-1.32-0.28-3.65,5.15-5.4c0,0,0.02-0.01,0.03-0.01
					L23.63,38.1z"/>
				<path class="st4" d="M123.71,4.77c-0.24-0.02-0.51-0.02-0.8,0.01c-2.07,0.22-8.34,2.92-8.34,2.92c3.44-2.67,6.07-3.95,7.63-4.54
					c0.7-0.27,0.48-1.3-0.27-1.28c-0.4,0.01-0.88,0.08-1.45,0.25c-2.38,0.7-7.29,3.94-7.29,3.94c1.68-1.92,2.96-3.14,3.87-3.9
					c0.62-0.51-0.04-1.47-0.74-1.09c-2.83,1.51-6.46,6.22-7.23,6.32c-1.02,0.13-1.2-1.41-2.04-3.43c-0.17-0.4-0.34-0.69-0.53-0.9
					c-0.48-0.55-1.35-0.05-1.14,0.64c0.02,0.05,0.03,0.11,0.05,0.16c1.49,4.89,1.33,10.13-0.41,14.93c-0.1,0.28-1.1,3.06-1.1,3.06
					c-0.31,0.85-0.62,1.65-0.93,2.41c-1.5,3.7-2.92,6.22-4.47,6.34c-0.34,0.03-0.67-0.11-0.92-0.33c-0.48-0.5-0.73-1.22-0.58-1.96
					l2.3-11.38c0.14-0.68-0.39-1.32-1.08-1.32h-3.19l0,0h-0.02c-1.58,0-2.94,1.11-3.25,2.66l-1.79,8.87
					c-0.35,1.71-1.59,3.13-3.26,3.63c-0.46,0.13-0.81,0.17-1.04,0.17c-0.07,0-0.13,0-0.18-0.01c-0.04,0-0.09-0.01-0.13-0.02
					c-1.21-0.24-1.99-1.4-1.75-2.6l2.3-11.38c0.14-0.68-0.39-1.32-1.08-1.32h-3.16l0,0h-0.06c-1.58,0-2.94,1.11-3.25,2.66
					l-1.61,7.97c-0.33,1.66-1.3,3.11-2.68,4.06c-0.16,0.11-0.33,0.21-0.5,0.3c-0.41,0.22-0.86,0.45-1.34,0.68
					c-0.53,0.25-1.12,0.53-1.81,0.84l3.06-15.2c0.14-0.68-0.39-1.32-1.08-1.32h-3.19l0,0h-0.03c-1.58,0-2.94,1.11-3.25,2.66
					l-3.38,16.78c-10.63,3.21-10.59,8.97-8.2,11.82c2.8,3.35,7.96,1.71,7.96,1.71c1.09-0.3,2.87-1.16,4.09-2.63
					c1.43-1.72,1.87-3.23,2.3-4.65l0.69-3.55c0.24-1.23,1.03-2.28,2.14-2.85c1.93-0.99,4.71-2.43,4.9-2.52
					c0.64,1.53,2,2.73,3.76,3.07c0.55,0.11,1.08,0.14,1.6,0.13c3.62-0.11,6.56-2.9,7.73-4.2c0.38,1.99,1.94,3.65,4.07,4.08
					c0.08,0.02,0.16,0.03,0.24,0.05c2.58,0.5,4.98-0.51,6.35-1.53c1.03-0.77,2.55-2.37,3.44-4.04c2.27-4.26,4.22-9.17,5.57-12.25
					c2.65-4.57,5.85-7.08,12.22-7.69c0.85-0.08,0.78-1.33-0.07-1.32c-0.07,0-0.14,0-0.2,0c-1.06-0.02-5.27,0.79-5.27,0.79
					c4-2.06,6.51-2.98,7.96-3.4C124.54,5.86,124.44,4.83,123.71,4.77z M61.96,38.1l-0.03-0.01l-0.58,3
					c-0.96,4.41-4.03,3.68-4.58,2.4c-0.57-1.32-0.28-3.65,5.15-5.4c0,0,0.02-0.01,0.03-0.01L61.96,38.1z"/>
			</g>
		</g>
	</g>
</g>
</svg>
