<?xml version="1.0" encoding="utf-8"?>
<!-- Generator: Adobe Illustrator 23.0.2, SVG Export Plug-In . SVG Version: 6.00 Build 0)  -->
<svg version="1.1" id="Capa_1" xmlns="http://www.w3.org/2000/svg" xmlns:xlink="http://www.w3.org/1999/xlink" x="0px" y="0px"
	 viewBox="0 0 50 50" style="enable-background:new 0 0 50 50;" xml:space="preserve">
<style type="text/css">
	.st0{fill:#2E2E2E;}
	.st1{fill:#998B82;}
	.st2{fill:#2B0F03;}
	.st3{fill:#57C178;}
	.st4{fill:#E6E6E6;}
	.st5{fill:#00AD9A;}
	.st6{fill:none;stroke:#2E2E2E;stroke-width:2;stroke-linecap:round;stroke-miterlimit:10;}
	.st7{fill:#7F7F7F;}
</style>
<g>
	<g>
		<path class="st0" d="M40.93,33.98H9.07c-1.42,0-2.58,1.15-2.58,2.58c0,1.42,1.16,2.58,2.58,2.58h31.87c1.42,0,2.58-1.15,2.58-2.58
			C43.51,35.13,42.36,33.98,40.93,33.98L40.93,33.98z M40.93,33.98"/>
	</g>
	<g>
		<path class="st0" d="M40.93,22.42H9.07c-1.42,0-2.58,1.15-2.58,2.58c0,1.42,1.16,2.58,2.58,2.58h31.87c1.42,0,2.58-1.15,2.58-2.58
			C43.51,23.57,42.36,22.42,40.93,22.42L40.93,22.42z M40.93,22.42"/>
	</g>
	<g>
		<path class="st0" d="M40.93,10.87H9.07c-1.42,0-2.58,1.15-2.58,2.58c0,1.42,1.16,2.58,2.58,2.58h31.87c1.42,0,2.58-1.15,2.58-2.58
			C43.51,12.02,42.36,10.87,40.93,10.87L40.93,10.87z M40.93,10.87"/>
	</g>
</g>
</svg>
